<?xml version="1.0" encoding="UTF-8"?>
<svg version="1.1" xmlns="http://www.w3.org/2000/svg" width="713" height="211">
<path d="M0 0 C235.29 0 470.58 0 713 0 C713 69.3 713 138.6 713 210 C477.71 210 242.42 210 0 210 C0 140.7 0 71.4 0 0 Z " fill="#020101" transform="translate(0,0)"/>
<path d="M0 0 C9.63280105 -0.07001074 19.26551233 -0.12306734 28.89851379 -0.15543652 C33.37319022 -0.17098477 37.84769052 -0.19202056 42.32226562 -0.22631836 C46.65357147 -0.25930407 50.98470967 -0.27693412 55.31613159 -0.28463173 C56.9552575 -0.29010585 58.59437594 -0.30079143 60.23342896 -0.31719017 C86.37279156 -0.56792569 86.37279156 -0.56792569 96 5 C96 5.66 96 6.32 96 7 C96.88429688 7.24234375 97.76859375 7.4846875 98.6796875 7.734375 C105.8451128 10.46566653 112.53473927 17.20808896 116 24 C118.85590272 31.03375169 119.38698236 37.4610103 119 45 C120.12341797 45.42925781 120.12341797 45.42925781 121.26953125 45.8671875 C123.56417692 46.81918642 125.57172729 47.84127274 127.6875 49.125 C130.65569437 51.16419941 130.65569437 51.16419941 133 51 C133.99 48.36 134.98 45.72 136 43 C138.97 43 141.94 43 145 43 C147.76337374 50.72170574 149.76306917 58.5987203 151.69921875 66.55834961 C152.25358013 68.82715218 152.82193153 71.09217508 153.390625 73.35742188 C153.7456518 74.80708129 154.09984866 76.25694426 154.453125 77.70703125 C154.62386536 78.37998734 154.79460571 79.05294342 154.97052002 79.74629211 C155.85118447 83.43916264 155.94908234 85.20367065 155 89 C151.7 89.66 148.4 90.32 145 91 C144.59910156 90.32195312 144.19820312 89.64390625 143.78515625 88.9453125 C136.57159341 77.13535247 126.84922195 64.00845787 113 60 C112.61714844 61.11181641 112.61714844 61.11181641 112.2265625 62.24609375 C109.37446877 68.64967999 103.47144508 73.37979221 97.1484375 76.19140625 C91.75952726 78.2195961 86.79288605 80 81 80 C81 80.66 81 81.32 81 82 C77.37 82 73.74 82 70 82 C74.43028563 89.93759509 80.33280059 92.67447072 88.9375 95.125 C90.15308594 95.44726562 91.36867188 95.76953125 92.62109375 96.1015625 C95.29789768 96.81331383 97.88676228 97.59147249 100.5 98.5 C108.15264757 101.10788549 115.89518749 103.47848684 123.87109375 104.828125 C129.20229076 105.87014316 133.45900245 107.96705995 138.125 110.6875 C138.90834717 111.13665771 139.69169434 111.58581543 140.4987793 112.04858398 C150.44887164 117.87163164 157.26191577 123.7857473 161 135 C161.87864447 148.36691921 160.8994638 159.23643959 152.0078125 169.91796875 C148.6818165 173.36691013 145.05166141 176.43367271 141 179 C140.34 179 139.68 179 139 179 C139 179.66 139 180.32 139 181 C137.37884308 181.63490176 135.75277293 182.25725792 134.125 182.875 C133.22007812 183.22304687 132.31515625 183.57109375 131.3828125 183.9296875 C117.49898327 188.32249259 99.28536037 189.93876541 85.578125 184.34765625 C81.68966189 182.31505054 78.00002685 180.05656592 74.375 177.5859375 C72.2978228 176.19887509 70.25863971 175.0561232 68 174 C67.69255859 174.92232422 67.69255859 174.92232422 67.37890625 175.86328125 C66.25260417 179.2421875 65.12630208 182.62109375 64 186 C62.52093108 186.02689216 61.04172517 186.04634621 59.5625 186.0625 C58.73878906 186.07410156 57.91507813 186.08570313 57.06640625 186.09765625 C55 186 55 186 54 185 C53.66690192 183.41355935 53.38805805 181.81565541 53.1328125 180.21484375 C52.97071289 179.21606201 52.80861328 178.21728027 52.64160156 177.18823242 C52.47112305 176.11549072 52.30064453 175.04274902 52.125 173.9375 C50.71635801 165.24592047 49.21286316 156.58888321 47.515625 147.94921875 C47 145 47 145 47 142 C31.49 142 15.98 142 0 142 C0 138.7 0 135.4 0 132 C1.46373047 131.96132813 1.46373047 131.96132813 2.95703125 131.921875 C4.22933594 131.86515625 5.50164063 131.8084375 6.8125 131.75 C8.07707031 131.70359375 9.34164063 131.6571875 10.64453125 131.609375 C14.00205083 131.33610624 14.00205083 131.33610624 15.68632793 129.25883579 C17.19224472 126.66943862 17.3748261 125.22394143 17.3742218 122.24925232 C17.38123611 121.29728973 17.38825043 120.34532715 17.39547729 119.36451721 C17.38401169 117.80820839 17.38401169 117.80820839 17.37231445 116.22045898 C17.37596512 115.12254028 17.37961578 114.02462158 17.38337708 112.89343262 C17.39148949 109.26082947 17.37786711 105.62867137 17.36328125 101.99609375 C17.36276277 99.47550965 17.36328001 96.95492513 17.36479187 94.43434143 C17.36470212 89.15090404 17.35460371 83.86762319 17.33618164 78.58422852 C17.31500373 72.47547945 17.31150672 66.36691837 17.3177436 60.25814003 C17.3234372 54.38055407 17.31768782 48.50302477 17.30657005 42.62544441 C17.30271359 40.12432179 17.30157168 37.6231935 17.3031559 35.12206841 C17.30352558 31.63131713 17.29093381 28.14085452 17.2746582 24.65014648 C17.27713562 23.61058304 17.27961304 22.57101959 17.28216553 21.49995422 C17.27508072 20.55081146 17.26799591 19.6016687 17.26069641 18.62376404 C17.25864354 17.79842383 17.25659067 16.97308363 17.25447559 16.12273312 C17.12612446 13.69982473 17.12612446 13.69982473 15 11 C12.40729301 10.45524022 9.99548055 10.07599851 7.375 9.8125 C6.31539062 9.6897168 6.31539062 9.6897168 5.234375 9.56445312 C3.4909317 9.36419275 1.74559914 9.18050599 0 9 C0 6.03 0 3.06 0 0 Z " fill="#F27F08" transform="translate(3,13)"/>
<path d="M0 0 C2.97 0 5.94 0 9 0 C9.17273437 0.73863281 9.34546875 1.47726563 9.5234375 2.23828125 C12.489248 12.94512925 18.560177 20.47011263 27.9375 26.4375 C33.0799496 29.23808288 38.4340059 31.2166427 44 33 C44.8353125 33.27714844 45.670625 33.55429688 46.53125 33.83984375 C50.83355675 35.20814068 55.04237047 36.2175177 59.5 36.9375 C64.22368981 37.73033369 68.28788953 39.18289911 72.67578125 41.0703125 C75.20777479 42.15400038 75.20777479 42.15400038 78.875 42.875 C88.01377376 45.01109549 95.56860782 49.36669207 101 57 C103.24335775 61.48671549 102.59008305 67.14573189 102 72 C98.27092159 80.70952541 91.268285 85.38911998 82.78930664 89.04052734 C72.6654354 93.02356202 62.11365605 91.84807392 52 88.328125 C47.1385807 86.17593416 43.1220572 83.32607374 39 80 C38.31421875 79.49984375 37.6284375 78.9996875 36.921875 78.484375 C28.30587488 71.76796546 22.28833632 60.88181849 18 51 C18 50.01 18 49.02 18 48 C16.95199219 48.04640625 15.90398438 48.0928125 14.82421875 48.140625 C13.44534099 48.17814548 12.06643242 48.21454536 10.6875 48.25 C9.99720703 48.28351563 9.30691406 48.31703125 8.59570312 48.3515625 C6.57421875 48.390625 6.57421875 48.390625 3 48 C0.31810922 45.2527383 -0.37326345 43.2985601 -0.34057617 39.50683594 C-0.34034958 38.62622498 -0.34012299 37.74561401 -0.33988953 36.83831787 C-0.32440567 35.89651672 -0.30892181 34.95471558 -0.29296875 33.984375 C-0.28872391 33.01340881 -0.28447906 32.04244263 -0.28010559 31.04205322 C-0.26332853 27.94441869 -0.22567772 24.84743751 -0.1875 21.75 C-0.17245192 19.6484469 -0.15876373 17.5468836 -0.14648438 15.4453125 C-0.11342811 10.29662371 -0.06165208 5.14842259 0 0 Z " fill="#020100" transform="translate(42,96)"/>
<path d="M0 0 C14.21906117 -1.3826458 14.21906117 -1.3826458 18.4453125 1.8984375 C20.1875 4.3125 20.1875 4.3125 21.54296875 6.73828125 C24.74817494 11.71365493 30.49113121 13.05288246 35.875 14.8125 C36.64513428 15.06749268 37.41526855 15.32248535 38.20874023 15.58520508 C45.70357484 18.00832479 53.30309435 19.99785029 60.94287109 21.9074707 C66.72687755 23.35982223 72.3737184 25.02052691 78 27 C78 27.66 78 28.32 78 29 C78.85851562 29.103125 79.71703125 29.20625 80.6015625 29.3125 C90.67206486 31.34975105 99.25919325 37.60959014 105 46 C109.70195151 53.32480882 109.02834412 64.16345227 107.56640625 72.4609375 C104.7302634 81.09267662 98.24585551 88.72019719 91 94 C90.44183594 94.43957031 89.88367188 94.87914062 89.30859375 95.33203125 C76.94852538 104.16827883 59.4038034 104.8156046 44.85839844 102.68652344 C36.69658496 101.09645414 29.78168774 97.70983997 23 93 C21.92685547 92.25943359 21.92685547 92.25943359 20.83203125 91.50390625 C19.20561865 90.35795087 17.59997339 89.18258903 16 88 C15.80664062 88.67546875 15.61328125 89.3509375 15.4140625 90.046875 C15.15367188 90.93890625 14.89328125 91.8309375 14.625 92.75 C14.36976562 93.63171875 14.11453125 94.5134375 13.8515625 95.421875 C13.0790066 97.76080572 12.16374324 99.83442562 11 102 C9.02 102 7.04 102 5 102 C4.86424561 101.12899658 4.72849121 100.25799316 4.58862305 99.3605957 C4.07233499 96.06295051 3.55179625 92.76603027 3.02856445 89.46948242 C2.80490947 88.05502876 2.58284812 86.64032199 2.36254883 85.2253418 C1.07655815 76.97332414 -0.38093594 68.86318452 -2.43823242 60.75854492 C-2.98552381 58.07108495 -3.18103179 55.73306459 -3 53 C-2 52 -2 52 1.5625 51.9375 C2.696875 51.958125 3.83125 51.97875 5 52 C5.54527344 53.11117187 6.09054688 54.22234375 6.65234375 55.3671875 C11.15284909 64.32788011 15.65888558 72.01410079 23 79 C23.65742187 79.65355469 24.31484375 80.30710937 24.9921875 80.98046875 C35.31371451 90.70094298 47.49862693 93.80283611 61.33984375 93.44140625 C70.82993053 92.81990395 79.76096818 88.43628523 86.51171875 81.7578125 C91.48906707 75.87905464 91.68019188 69.89357358 91.44921875 62.375 C90.74809095 57.10739632 89.18383269 54.26793236 85 51 C77.74709362 46.62523107 70.12405188 43.38573394 62 41 C60.09445596 40.38974093 58.18893206 39.77941849 56.28369141 39.16821289 C50.80654065 37.42223553 45.34216002 35.78226384 39.75 34.4375 C26.70085127 31.24574876 11.55742919 27.08688178 4 15 C1.11591616 9.8213463 -0.22362816 5.99495486 0 0 Z " fill="#060301" transform="translate(54,95)"/>
<path d="M0 0 C5.1975 -0.061875 10.395 -0.12375 15.75 -0.1875 C17.36358398 -0.21481201 18.97716797 -0.24212402 20.63964844 -0.27026367 C41.97920713 -0.3923165 41.97920713 -0.3923165 49 6.4375 C50.01337506 7.61360682 51.01511707 8.79993256 52 10 C52.763125 10.70125 53.52625 11.4025 54.3125 12.125 C57.75290482 15.94767203 58.24573615 19.80194975 58.125 24.8125 C58.10695312 25.78832031 58.08890625 26.76414062 58.0703125 27.76953125 C58.04710937 28.50558594 58.02390625 29.24164063 58 30 C56.47632812 30.12955078 56.47632812 30.12955078 54.921875 30.26171875 C39.92403285 31.71595518 28.09255951 36.17461121 17.625 47.4375 C14.71550041 50.99355505 13.37637758 54.641471 12 59 C8.04 59 4.08 59 0 59 C0 39.53 0 20.06 0 0 Z " fill="#090401" transform="translate(41,25)"/>
<path d="M0 0 C163.02 0 326.04 0 494 0 C494 1.32 494 2.64 494 4 C330.98 4 167.96 4 0 4 C0 2.68 0 1.36 0 0 Z " fill="#C3C3C4" transform="translate(214,146)"/>
<path d="M0 0 C1.06025391 -0.020625 2.12050781 -0.04125 3.21289062 -0.0625 C12.39299676 -0.10780589 19.28454298 1.75247995 27.25 6.3125 C30.28350802 8.03280109 33.30182828 9.72236506 36.4375 11.25 C36.64246094 10.61191406 36.84742188 9.97382812 37.05859375 9.31640625 C37.32800781 8.49011719 37.59742188 7.66382812 37.875 6.8125 C38.14183594 5.98878906 38.40867187 5.16507813 38.68359375 4.31640625 C39.4375 2.25 39.4375 2.25 40.4375 1.25 C42.43708364 1.20919217 44.43795254 1.20745644 46.4375 1.25 C46.55867188 1.98605469 46.67984375 2.72210938 46.8046875 3.48046875 C46.97226563 4.45628906 47.13984375 5.43210937 47.3125 6.4375 C47.47492188 7.40042969 47.63734375 8.36335938 47.8046875 9.35546875 C48.34211726 12.2070843 48.34211726 12.2070843 49.39648438 14.60839844 C51.14266412 19.03937048 52.02299204 23.67399793 53.0625 28.3125 C53.29195313 29.30572266 53.52140625 30.29894531 53.7578125 31.32226562 C53.974375 32.27939453 54.1909375 33.23652344 54.4140625 34.22265625 C54.70917725 35.52601929 54.70917725 35.52601929 55.01025391 36.85571289 C55.4375 39.25 55.4375 39.25 55.4375 43.25 C52.7975 43.58 50.1575 43.91 47.4375 44.25 C47.08751953 43.48429687 47.08751953 43.48429687 46.73046875 42.703125 C40.9449036 31.17288209 29.32102221 18.24726069 17.1484375 13.32421875 C14.86616132 12.71253139 14.86616132 12.71253139 11.4375 12.25 C10.37789062 11.91742188 9.31828125 11.58484375 8.2265625 11.2421875 C-0.18709524 9.03902351 -10.3435967 8.62680639 -18.3125 12.4375 C-22.79482205 15.13906932 -26.56297079 18.01595292 -28.7421875 22.88671875 C-30.5625 25.25 -30.5625 25.25 -33.91796875 25.73828125 C-35.81482422 25.65126953 -35.81482422 25.65126953 -37.75 25.5625 C-39.02230469 25.51738281 -40.29460938 25.47226563 -41.60546875 25.42578125 C-42.58128906 25.36777344 -43.55710938 25.30976562 -44.5625 25.25 C-43.48979969 17.59542247 -37.86702811 13.00760212 -31.9375 8.5 C-26.23829866 4.6596151 -20.13282093 3.02627862 -13.5625 1.25 C-9.53658037 -0.76295982 -4.42505493 0.02098426 0 0 Z " fill="#080402" transform="translate(100.5625,56.75)"/>
<path d="M0 0 C3.3 0 6.6 0 10 0 C10 15.84 10 31.68 10 48 C6.7 48 3.4 48 0 48 C-0.33 47.01 -0.66 46.02 -1 45 C-1.66 45 -2.32 45 -3 45 C-3 45.66 -3 46.32 -3 47 C-6.94743461 48.9737173 -11.6967484 48.43592997 -16 48 C-19.9851677 45.92439182 -21.90914868 43.28049551 -23.49609375 39.0546875 C-25.14610417 32.32673802 -24.5283844 25.99825348 -21 20 C-18.11007097 16.60433339 -16.67296292 15.25130344 -12.26953125 14.58984375 C-9.39569205 14.50252763 -6.82773301 14.46730304 -4 15 C-3.01 15.99 -2.02 16.98 -1 18 C-0.67 12.06 -0.34 6.12 0 0 Z " fill="#E47B0C" transform="translate(497,87)"/>
<path d="M0 0 C24.86681223 0 24.86681223 0 31.46484375 4.7890625 C34.57892556 9.27397422 33.73134601 14.80291286 33 20 C31.06489782 24.66386377 26.71069996 27.26531665 22.26953125 29.3203125 C18.15349552 30.5529979 14.26426057 30.23690337 10 30 C10 35.28 10 40.56 10 46 C6.7 46 3.4 46 0 46 C0 30.82 0 15.64 0 0 Z " fill="#E77A0B" transform="translate(217,89)"/>
<path d="M0 0 C4.29 0 8.58 0 13 0 C13.556875 1.876875 14.11375 3.75375 14.6875 5.6875 C17.33739163 14.29262512 20.45157461 22.6809629 24.1875 30.875 C26.27431333 35.47105851 28 39.8878101 28 45 C24.7 45 21.4 45 18 45 C17.01 42.03 16.02 39.06 15 36 C9.39 36 3.78 36 -2 36 C-2.99 38.97 -3.98 41.94 -5 45 C-8.3 45 -11.6 45 -15 45 C-14.50575069 38.32763427 -12.61749106 33.11848856 -10 27 C-8.99237139 24.54441178 -7.99073849 22.08736357 -7 19.625 C-6.74436279 18.99062012 -6.48872559 18.35624023 -6.2253418 17.70263672 C-3.90345619 11.87827083 -1.91651629 5.97068538 0 0 Z " fill="#EC7E09" transform="translate(604,89)"/>
<path d="M0 0 C3.16348221 2.34935076 5.24097212 4.47083318 7.4375 7.765625 C8.08845053 13.36682727 8.48216254 19.62578433 6 24.828125 C2.11946976 29.27653771 -2.07117833 31.25270963 -7.90234375 32.109375 C-14.22047852 32.36858053 -18.98212216 30.87067008 -23.9375 26.828125 C-27.83510776 21.88116131 -27.14703789 14.74712917 -26.5625 8.765625 C-24.5796377 4.72908389 -22.39670139 2.1156194 -18.5625 -0.234375 C-12.75958184 -2.16868105 -5.60064297 -2.6978707 0 0 Z " fill="#E67B0C" transform="translate(433.5625,103.234375)"/>
<path d="M0 0 C1.37478516 0.01740234 1.37478516 0.01740234 2.77734375 0.03515625 C3.69644531 0.04417969 4.61554688 0.05320312 5.5625 0.0625 C6.27277344 0.07410156 6.98304688 0.08570312 7.71484375 0.09765625 C7.90820312 1.00386719 8.1015625 1.91007812 8.30078125 2.84375 C9.74525239 9.60130063 11.20350075 16.35474132 12.71484375 23.09765625 C13.04484375 23.09765625 13.37484375 23.09765625 13.71484375 23.09765625 C13.80048584 22.50227051 13.88612793 21.90688477 13.97436523 21.29345703 C14.36345628 18.60265996 14.75783376 15.91266393 15.15234375 13.22265625 C15.28705078 12.28550781 15.42175781 11.34835938 15.56054688 10.3828125 C15.69267578 9.48691406 15.82480469 8.59101562 15.9609375 7.66796875 C16.08138428 6.84055176 16.20183105 6.01313477 16.32592773 5.16064453 C16.71484375 3.09765625 16.71484375 3.09765625 17.71484375 1.09765625 C20.68484375 1.09765625 23.65484375 1.09765625 26.71484375 1.09765625 C25.51232694 7.11024028 23.9386745 12.96749901 22.21484375 18.84765625 C22.00126221 19.58040771 21.78768066 20.31315918 21.56762695 21.06811523 C20.45271116 24.82929248 19.25227911 28.48183604 17.71484375 32.09765625 C14.41484375 32.09765625 11.11484375 32.09765625 7.71484375 32.09765625 C6.87480927 29.34954345 6.04262224 26.59946044 5.21484375 23.84765625 C4.97636719 23.07035156 4.73789062 22.29304688 4.4921875 21.4921875 C4.26660156 20.73808594 4.04101562 19.98398438 3.80859375 19.20703125 C3.59912109 18.51577148 3.38964844 17.82451172 3.17382812 17.11230469 C2.71484375 15.09765625 2.71484375 15.09765625 2.71484375 11.09765625 C2.05484375 11.09765625 1.39484375 11.09765625 0.71484375 11.09765625 C0.59367187 11.77570313 0.4725 12.45375 0.34765625 13.15234375 C-0.79223798 19.48314092 -2.00605494 25.7935141 -3.28515625 32.09765625 C-7.24515625 32.09765625 -11.20515625 32.09765625 -15.28515625 32.09765625 C-19.26513429 21.75972587 -22.26515812 12.1945324 -23.28515625 1.09765625 C-20.31515625 1.09765625 -17.34515625 1.09765625 -14.28515625 1.09765625 C-12.28515625 8.09765625 -10.28515625 15.09765625 -8.28515625 22.09765625 C-6.25678102 15.86378305 -4.75023787 9.72575448 -3.71484375 3.25 C-3.1287263 0.31408441 -3.02095691 0.12910072 0 0 Z " fill="#EB7C0B" transform="translate(375.28515625,101.90234375)"/>
<path d="M0 0 C1.794375 -0.00773437 1.794375 -0.00773437 3.625 -0.015625 C6.85804974 0.23882799 9.09417459 0.86312878 12 2.25 C12 4.89 12 7.53 12 10.25 C11.29230469 10.08886719 10.58460938 9.92773438 9.85546875 9.76171875 C6.95420419 9.24179309 4.25765087 9.08258971 1.3125 9.0625 C0.35988281 9.04832031 -0.59273437 9.03414062 -1.57421875 9.01953125 C-4.18212282 9.00741803 -4.18212282 9.00741803 -6 11.25 C-6.38894914 13.74192611 -6.38894914 13.74192611 -5 16.25 C-2.12591304 17.93015234 0.87397249 19.11957793 4 20.25 C4 20.91 4 21.57 4 22.25 C4.53625 22.311875 5.0725 22.37375 5.625 22.4375 C9.17251228 23.65112262 11.92680905 25.11311304 14 28.25 C14.5126109 31.9690444 14.35269464 35.52058078 14 39.25 C13.34 39.25 12.68 39.25 12 39.25 C11.6596875 40.178125 11.6596875 40.178125 11.3125 41.125 C9.61583557 43.8719805 7.94748289 44.11635273 5 45.25 C4.67 46.24 4.34 47.23 4 48.25 C1.62468606 48.3043965 -0.74935883 48.34385864 -3.125 48.375 C-3.79015625 48.39175781 -4.4553125 48.40851563 -5.140625 48.42578125 C-9.49516056 48.46847278 -12.95600114 47.84996217 -17 46.25 C-17 42.95 -17 39.65 -17 36.25 C-14.23723823 36.77268466 -11.6739124 37.35869587 -9 38.25 C-6.93854893 38.318991 -4.87498599 38.33467727 -2.8125 38.3125 C-1.72582031 38.30347656 -0.63914062 38.29445312 0.48046875 38.28515625 C1.31191406 38.27355469 2.14335938 38.26195312 3 38.25 C2.89207179 35.3457107 2.89207179 35.3457107 2 32.25 C-0.74743571 30.00209805 -3.69846979 28.98582264 -7 27.8125 C-11.49861084 26.17432662 -14.83890868 24.24044227 -17.3125 20 C-18.46245068 15.40019728 -19.28329022 11.44747355 -16.83203125 7.25 C-12.00944232 1.29924759 -7.64818518 -0.03296632 0 0 Z " fill="#E27709" transform="translate(551,87.75)"/>
<path d="M0 0 C0 2.97 0 5.94 0 9 C-0.70769531 8.83886719 -1.41539062 8.67773438 -2.14453125 8.51171875 C-5.04579581 7.99179309 -7.74234913 7.83258971 -10.6875 7.8125 C-11.64011719 7.79832031 -12.59273437 7.78414062 -13.57421875 7.76953125 C-16.18212282 7.75741803 -16.18212282 7.75741803 -18 10 C-18.22348143 12.4797728 -18.22348143 12.4797728 -17 15 C-13.8495401 17.12050186 -11.06442729 18.62745045 -7.5 19.875 C-3.67810769 21.59485154 -0.5574018 23.63537361 2 27 C3.23647387 31.60792596 2.4437601 35.0592286 0.4375 39.3125 C-3.73501358 43.91296369 -6.45433593 45.77983446 -12.61328125 46.3125 C-18.4240722 46.46783445 -23.65832808 46.55827199 -29 44 C-29 41.03 -29 38.06 -29 35 C-27.865625 35.33 -26.73125 35.66 -25.5625 36 C-20.68974702 37.22470262 -14.64398091 38.32199045 -10 36 C-9.83312552 33.58354218 -9.83312552 33.58354218 -10 31 C-13.17495516 27.82504484 -17.34556124 26.47269679 -21.625 25.25 C-25.29681242 23.31746715 -27.31234056 20.77648384 -29 17 C-29.86788245 12.19671954 -29.74328709 8.39737973 -27.4375 4.0625 C-19.65769049 -2.52041574 -9.61262188 -2.40315547 0 0 Z " fill="#E97C09" transform="translate(686,89)"/>
<path d="M0 0 C1.97806641 -0.00773437 1.97806641 -0.00773437 3.99609375 -0.015625 C9.06599113 0.36197962 9.06599113 0.36197962 11.5625 2.25 C14.27743068 6.02412075 14.92654392 8.58714505 14.85546875 13.20703125 C14.84580078 14.31884766 14.83613281 15.43066406 14.82617188 16.57617188 C14.80103516 17.72666016 14.77589844 18.87714844 14.75 20.0625 C14.72969727 21.81723633 14.72969727 21.81723633 14.70898438 23.60742188 C14.67370278 26.488752 14.6244028 29.36913904 14.5625 32.25 C11.5925 32.25 8.6225 32.25 5.5625 32.25 C5.5625 31.26 5.5625 30.27 5.5625 29.25 C4.758125 29.91 3.95375 30.57 3.125 31.25 C-0.30564135 33.51812544 -3.2422032 33.91048529 -7.3125 33.68359375 C-9.4375 33.25 -9.4375 33.25 -12.5 31.375 C-14.85147926 27.58229152 -15.21288768 25.03704958 -14.99609375 20.62890625 C-14.37109912 17.96721585 -13.72701256 16.96753259 -11.6875 15.1875 C-7.30979836 12.57771633 -4.2415338 12.12099956 0.8125 12.1875 C1.70453125 12.19652344 2.5965625 12.20554687 3.515625 12.21484375 C4.19109375 12.22644531 4.8665625 12.23804687 5.5625 12.25 C5.2325 10.93 4.9025 9.61 4.5625 8.25 C-0.67221686 7.49387423 -5.21004141 7.0436634 -10.4375 8.25 C-10.625 5.375 -10.625 5.375 -10.4375 2.25 C-6.82740719 -0.15672854 -4.16774719 -0.04795107 0 0 Z " fill="#E6790B" transform="translate(269.4375,101.75)"/>
<path d="M0 0 C3.96 0 7.92 0 12 0 C12 0.33 12 0.66 12 1 C8.37 1 4.74 1 1 1 C5.43028563 8.93759509 11.33280059 11.67447072 19.9375 14.125 C21.15308594 14.44726562 22.36867187 14.76953125 23.62109375 15.1015625 C26.29789768 15.81331383 28.88676228 16.59147249 31.5 17.5 C39.15264757 20.10788549 46.89518749 22.47848684 54.87109375 23.828125 C60.20229076 24.87014316 64.45900245 26.96705995 69.125 29.6875 C69.90834717 30.13665771 70.69169434 30.58581543 71.4987793 31.04858398 C81.44887164 36.87163164 88.26191577 42.7857473 92 54 C92.87864447 67.36691921 91.8994638 78.23643959 83.0078125 88.91796875 C79.6818165 92.36691013 76.05166141 95.43367271 72 98 C71.34 98 70.68 98 70 98 C70 98.66 70 99.32 70 100 C68.37884308 100.63490176 66.75277293 101.25725792 65.125 101.875 C64.22007812 102.22304687 63.31515625 102.57109375 62.3828125 102.9296875 C48.49898327 107.32249259 30.28536037 108.93876541 16.578125 103.34765625 C12.68966189 101.31505054 9.00002685 99.05656592 5.375 96.5859375 C3.2978228 95.19887509 1.25863971 94.0561232 -1 93 C-1.20496094 93.61488281 -1.40992187 94.22976562 -1.62109375 94.86328125 C-2.74739583 98.2421875 -3.87369792 101.62109375 -5 105 C-6.47906892 105.02689216 -7.95827483 105.04634621 -9.4375 105.0625 C-10.67306641 105.07990234 -10.67306641 105.07990234 -11.93359375 105.09765625 C-14 105 -14 105 -15 104 C-15.33309808 102.41355935 -15.61194195 100.81565541 -15.8671875 99.21484375 C-16.02936768 98.21622314 -16.19154785 97.21760254 -16.35864258 96.1887207 C-16.52904053 95.11581787 -16.69943848 94.04291504 -16.875 92.9375 C-18.26779782 84.29650788 -19.78492787 75.71041997 -21.58203125 67.14453125 C-21.98989266 64.07604117 -21.81982012 61.96139105 -21 59 C-19.09203317 61.86195024 -18.59811162 63.20159748 -18 66.46484375 C-17.8359668 67.34180908 -17.67193359 68.21877441 -17.50292969 69.12231445 C-17.33696289 70.05132568 -17.17099609 70.98033691 -17 71.9375 C-16.82629883 72.88520264 -16.65259766 73.83290527 -16.47363281 74.80932617 C-16.13067352 76.69029381 -15.79107197 78.57187723 -15.45507812 80.45410156 C-15.07825298 82.5622199 -14.68916603 84.6681423 -14.296875 86.7734375 C-13.30685682 92.27510998 -12.78499298 97.40981757 -13 103 C-10.08086878 103.02202398 -10.08086878 103.02202398 -7 102 C-5.18211076 99.04277857 -5.18211076 99.04277857 -4.125 95.4375 C-3.71507813 94.23996094 -3.30515625 93.04242188 -2.8828125 91.80859375 C-2.59148437 90.88175781 -2.30015625 89.95492187 -2 89 C1.5256385 90.63630112 4.6361203 92.73459322 7.875 94.875 C23.031024 104.3240206 40.84097239 105.46059772 58.0625 101.5 C71.51349853 97.32606076 80.39176679 89.18911099 87.01953125 77.11328125 C90.35493444 69.92422497 90.18033787 59.84275767 88.31640625 52.1953125 C87.38346284 49.95779678 86.32584739 48.02677308 85 46 C84.65710938 45.401875 84.31421875 44.80375 83.9609375 44.1875 C78.90190625 36.87638387 68.16724328 32.72241443 60 30 C60 29.34 60 28.68 60 28 C58.845 27.896875 57.69 27.79375 56.5 27.6875 C52.86841764 27.36325157 49.81382963 26.17127605 46.43115234 24.8581543 C40.31298316 22.69854748 33.92600164 21.29023171 27.64257812 19.69335938 C17.76631086 17.11369445 7.15913658 14.22558186 0.5625 5.9375 C-0.2109375 4.4834375 -0.2109375 4.4834375 -1 3 C-0.67 2.01 -0.34 1.02 0 0 Z " fill="#8B4C0F" transform="translate(72,94)"/>
<path d="M0 0 C0.74958984 0.01804688 1.49917969 0.03609375 2.27148438 0.0546875 C4.1190371 0.10175891 5.96593159 0.17350234 7.8125 0.25 C7.8125 1.24 7.8125 2.23 7.8125 3.25 C8.328125 2.76402344 8.84375 2.27804688 9.375 1.77734375 C12.63191433 -0.26344712 14.99187803 -0.18345273 18.8125 -0.1875 C20.029375 -0.20683594 21.24625 -0.22617188 22.5 -0.24609375 C25.8125 0.25 25.8125 0.25 28.2109375 2.03125 C30.16350551 4.73627104 30.51117779 6.95569939 30.3125 10.27734375 C29.6048761 13.06914115 28.12562629 14.76455224 25.79296875 16.41015625 C20.89976002 18.48518559 15.62655783 17.83049851 10.6875 16.25 C10.06875 15.92 9.45 15.59 8.8125 15.25 C8.4825 15.91 8.1525 16.57 7.8125 17.25 C5.20805652 17.30394705 2.60473002 17.34364469 0 17.375 C-0.73798828 17.39175781 -1.47597656 17.40851563 -2.23632812 17.42578125 C-6.09996426 17.46074628 -7.89653668 17.44397555 -11.1875 15.25 C-11.5859375 12.7890625 -11.5859375 12.7890625 -11.5625 9.875 C-11.57023437 8.91851562 -11.57796875 7.96203125 -11.5859375 6.9765625 C-10.5273213 -0.26769343 -6.48470933 -0.29450208 0 0 Z " fill="#1C1C1C" transform="translate(278.1875,160.75)"/>
<path d="M0 0 C9.57 0 19.14 0 29 0 C29 0.33 29 0.66 29 1 C23.72 1 18.44 1 13 1 C14.33785062 9.29467383 17.25852968 16.15163052 23.1875 22.25 C24.115625 22.8275 25.04375 23.405 26 24 C26.72445312 24.45761719 27.44890625 24.91523437 28.1953125 25.38671875 C40.45070135 32.64849393 54.73646071 35.69384323 68.51171875 38.7890625 C75.64615194 40.50371207 82.00267764 42.67813583 88.5625 45.9375 C89.21702148 46.26129639 89.87154297 46.58509277 90.54589844 46.91870117 C96.52763244 50.02282357 102.18692703 53.62052265 105 60 C105.90884533 66.85318505 106.10118221 74.2307605 102.3671875 80.26953125 C96.06081717 88.25159427 86.95845646 93.8507198 76.79882812 95.31787109 C63.07870551 96.4827318 51.63797907 93.84271312 40.66015625 85.25 C29.99720672 76.23111758 22.11166478 66.56849377 18 53 C16.80375 52.855625 15.6075 52.71125 14.375 52.5625 C10.8994842 52.12960657 7.45049966 51.60383744 4 51 C4 50.67 4 50.34 4 50 C8.95 50 13.9 50 19 50 C19.72703125 51.54107422 19.72703125 51.54107422 20.46875 53.11328125 C27.84159489 68.47616329 36.22992017 81.67320656 52.3125 89.0625 C64.9880934 93.48421863 76.42349729 93.61111577 88.61962891 87.98925781 C95.05956188 84.75561673 99.26061989 80.74031684 102 74 C102.63875067 68.25124398 102.79584599 62.85697397 100.5 57.5 C97.29695959 54.29695959 93.96504279 52.15286601 90 50 C89.01966797 49.44119141 89.01966797 49.44119141 88.01953125 48.87109375 C83.84936901 46.61537725 79.98086181 45.45103679 75.33984375 44.5625 C72.80200244 43.95240125 70.57934791 43.04093221 68.1875 42 C63.48377079 40.02370447 58.95538175 39.23105604 53.9296875 38.4765625 C37.6288835 35.82496505 22.78096366 27.40200127 13 14 C11.953125 11.6484375 11.953125 11.6484375 11.25 9.375 C11.00765625 8.61960937 10.7653125 7.86421875 10.515625 7.0859375 C10 5 10 5 10 2 C7.03 2 4.06 2 1 2 C1 16.52 1 31.04 1 46 C0.67 46 0.34 46 0 46 C0 30.82 0 15.64 0 0 Z " fill="#8B4B0E" transform="translate(41,94)"/>
<path d="M0 0 C2.90950362 -0.22176095 5.59955497 -0.28037139 8.5 -0.1875 C9.67755859 -0.16719727 9.67755859 -0.16719727 10.87890625 -0.14648438 C12.91952407 -0.10973225 14.95981913 -0.05598057 17 0 C17.66 0 18.32 0 19 0 C20.65 0 22.3 0 24 0 C24.66 3.96 25.32 7.92 26 12 C28.97 12.33 31.94 12.66 35 13 C35 9.04 35 5.08 35 1 C36.65 1 38.3 1 40 1 C40.02684679 3.64590014 40.04676357 6.29153096 40.0625 8.9375 C40.07087891 9.69224609 40.07925781 10.44699219 40.08789062 11.22460938 C40.09652441 13.14994313 40.05224333 15.07535581 40 17 C38.06822773 18.93177227 34.88967485 18.39228109 32.3125 18.5 C25.72375 18.5 25.72375 18.5 22.73828125 16.4375 C21.28165497 14.68813768 20.07384783 13.00451595 19 11 C18.87625 11.969375 18.7525 12.93875 18.625 13.9375 C18.315625 15.4534375 18.315625 15.4534375 18 17 C14.98141234 18.50929383 11.87099046 18.22510073 8.5625 18.25 C7.88123047 18.270625 7.19996094 18.29125 6.49804688 18.3125 C3.6740797 18.33462707 1.51833352 18.30270677 -0.953125 16.859375 C-2.45934395 14.1841503 -2.36110463 12.05087548 -2.3125 9 C-2.30863281 7.948125 -2.30476562 6.89625 -2.30078125 5.8125 C-2 3 -2 3 0 0 Z " fill="#3F3F3E" transform="translate(568,160)"/>
<path d="M0 0 C3.93725326 -0.11594584 7.87406923 -0.18716464 11.8125 -0.25 C12.93205078 -0.28351563 14.05160156 -0.31703125 15.20507812 -0.3515625 C16.27822266 -0.36445313 17.35136719 -0.37734375 18.45703125 -0.390625 C19.9416687 -0.4220459 19.9416687 -0.4220459 21.45629883 -0.45410156 C24 0 24 0 25.6940918 1.99316406 C26.34051636 2.98654785 26.34051636 2.98654785 27 4 C29.45672892 4.66685938 29.45672892 4.66685938 32 4 C33.37310707 2.70766393 34.71034824 1.37562854 36 0 C36.99 0 37.98 0 39 0 C39 3 39 3 37.6875 4.38671875 C36.125 5.59114583 34.5625 6.79557292 33 8 C34.52708963 11.43595166 36.59927045 14.11912454 39 17 C34.35842294 16.37275986 34.35842294 16.37275986 32.4375 14.375 C31.963125 13.92125 31.48875 13.4675 31 13 C28.93400917 12.93245166 28.93400917 12.93245166 27 14 C26.5676001 14.6698291 26.1352002 15.3396582 25.68969727 16.02978516 C24 18 24 18 21.67163086 18.48583984 C20.77839111 18.47762207 19.88515137 18.4694043 18.96484375 18.4609375 C17.99095703 18.45707031 17.01707031 18.45320313 16.01367188 18.44921875 C14.4909668 18.41248047 14.4909668 18.41248047 12.9375 18.375 C11.40899414 18.37306641 11.40899414 18.37306641 9.84960938 18.37109375 C2.28080986 18.28080986 2.28080986 18.28080986 0 16 C-0.14507695 13.25514407 -0.18652423 10.61519457 -0.125 7.875 C-0.11146484 6.74384766 -0.11146484 6.74384766 -0.09765625 5.58984375 C-0.0740687 3.72642746 -0.03819719 1.86317407 0 0 Z " fill="#242323" transform="translate(334,160)"/>
<path d="M0 0 C1 1 1 1 1.0625 4.5625 C1.041875 5.696875 1.02125 6.83125 1 8 C-3.29 8 -7.58 8 -12 8 C-12 8.99 -12 9.98 -12 11 C-11.32453125 11.17015625 -10.6490625 11.3403125 -9.953125 11.515625 C-6.17143306 12.54302108 -2.75312678 13.55171025 0.625 15.5625 C2.91670561 19.62506903 3.14971582 23.49573361 2 28 C-0.16851292 30.92814169 -2.53236794 32.01783832 -6 33 C-17.8302583 34.08487085 -17.8302583 34.08487085 -22 32 C-22 29.36 -22 26.72 -22 24 C-21.01 24.33 -20.02 24.66 -19 25 C-17.10529184 25.0685495 -15.2083166 25.08480372 -13.3125 25.0625 C-12.31863281 25.05347656 -11.32476562 25.04445313 -10.30078125 25.03515625 C-9.54152344 25.02355469 -8.78226562 25.01195313 -8 25 C-7.67 23.68 -7.34 22.36 -7 21 C-8.03125 20.9175 -9.0625 20.835 -10.125 20.75 C-14.36413089 19.92952305 -16.63724801 18.65892018 -20 16 C-22.53418918 12.19871623 -22.68690436 10.50303968 -22 6 C-17.351416 -2.0039529 -8.05206027 -0.79315806 0 0 Z " fill="#E87C0B" transform="translate(314,102)"/>
<path d="M0 0 C1.15886719 -0.00257812 2.31773437 -0.00515625 3.51171875 -0.0078125 C6.3125 0.125 6.3125 0.125 7.3125 1.125 C7.35342937 3.45797433 7.35491723 5.79205225 7.3125 8.125 C3.3525 8.125 -0.6075 8.125 -4.6875 8.125 C-4.3575 9.445 -4.0275 10.765 -3.6875 12.125 C-3.08421875 12.22296875 -2.4809375 12.3209375 -1.859375 12.421875 C1.79573929 13.10573509 4.71155164 13.7439108 7.875 15.75 C9.93998665 19.16171707 10.20765683 22.30920435 9.3125 26.125 C6.86951712 29.16222197 4.5461335 30.96924433 1.3125 33.125 C-1.97265625 33.35546875 -1.97265625 33.35546875 -5.75 33.3125 C-7.62365234 33.30283203 -7.62365234 33.30283203 -9.53515625 33.29296875 C-12.6875 33.125 -12.6875 33.125 -14.6875 32.125 C-14.6875 29.815 -14.6875 27.505 -14.6875 25.125 C-10.3975 25.125 -6.1075 25.125 -1.6875 25.125 C-1.6875 24.135 -1.6875 23.145 -1.6875 22.125 C-2.36296875 21.89425781 -3.0384375 21.66351563 -3.734375 21.42578125 C-13.41497165 17.88648796 -13.41497165 17.88648796 -15.6875 13.125 C-15.99470313 8.96530355 -15.37087951 6.04402762 -12.875 2.6875 C-8.81676852 -0.21123677 -4.89504055 -0.01096314 0 0 Z " fill="#E1780B" transform="translate(337.6875,101.875)"/>
<path d="M0 0 C1.98 0 3.96 0 6 0 C6.33 0.66 6.66 1.32 7 2 C7.33 1.34 7.66 0.68 8 0 C10.39706123 -0.10854617 12.78915838 -0.18753157 15.1875 -0.25 C15.86103516 -0.28351563 16.53457031 -0.31703125 17.22851562 -0.3515625 C20.79137623 -0.42108173 22.85759834 -0.08374349 25.94921875 1.734375 C28.21498165 4.23750354 28.68185584 5.17961871 28.625 8.5 C28.63789062 9.2528125 28.65078125 10.005625 28.6640625 10.78125 C27.65000166 14.16940622 25.9981385 15.21078832 23 17 C19.5546875 17.390625 19.5546875 17.390625 15.875 17.25 C14.65554688 17.21390625 13.43609375 17.1778125 12.1796875 17.140625 C11.13039063 17.09421875 10.08109375 17.0478125 9 17 C6.0414693 16.89523546 6.0414693 16.89523546 3.375 17.5625 C2.199375 17.7790625 2.199375 17.7790625 1 18 C0 17 0 17 -0.09765625 13.18359375 C-0.09098089 11.60153318 -0.07901875 10.01948841 -0.0625 8.4375 C-0.05798828 7.63119141 -0.05347656 6.82488281 -0.04882812 5.99414062 C-0.03700518 3.99606244 -0.01906914 1.99802217 0 0 Z " fill="#A5A5A3" transform="translate(633,161)"/>
<path d="M0 0 C1.093125 0.0825 2.18625 0.165 3.3125 0.25 C3.3125 3.22 3.3125 6.19 3.3125 9.25 C2.03375 9.37375 0.755 9.4975 -0.5625 9.625 C-4.03540936 9.94042399 -4.03540936 9.94042399 -6.6875 12.25 C-7.05702049 14.37860662 -7.05702049 14.37860662 -7.1015625 16.8203125 C-7.15957031 18.16416016 -7.15957031 18.16416016 -7.21875 19.53515625 C-7.26515625 20.94087891 -7.26515625 20.94087891 -7.3125 22.375 C-7.37050781 23.79232422 -7.37050781 23.79232422 -7.4296875 25.23828125 C-7.5241082 27.5751935 -7.60689898 29.9125703 -7.6875 32.25 C-10.6575 32.25 -13.6275 32.25 -16.6875 32.25 C-16.6875 22.02 -16.6875 11.79 -16.6875 1.25 C-13.7175 1.25 -10.7475 1.25 -7.6875 1.25 C-7.3575 2.24 -7.0275 3.23 -6.6875 4.25 C-6.336875 3.59 -5.98625 2.93 -5.625 2.25 C-3.6875 0.25 -3.6875 0.25 0 0 Z " fill="#EC7D0A" transform="translate(466.6875,101.75)"/>
<path d="M0 0 C0.89203125 0.00902344 1.7840625 0.01804687 2.703125 0.02734375 C3.37859375 0.03894531 4.0540625 0.05054687 4.75 0.0625 C3.76 0.7225 2.77 1.3825 1.75 2.0625 C1.75 2.7225 1.75 3.3825 1.75 4.0625 C2.74 4.3925 3.73 4.7225 4.75 5.0625 C5.0964451 10.72110333 4.35428359 14.14329765 1.75 19.0625 C-2.28938336 21.75542224 -5.50802776 21.83483523 -10.25 21.0625 C-13.3125 19.1875 -13.3125 19.1875 -15.25 16.0625 C-15.9960048 12.56201593 -16.06983823 9.55397891 -15.25 6.0625 C-11.44789528 0.67109106 -6.14629216 -0.08087227 0 0 Z " fill="#DE770C" transform="translate(270.25,113.9375)"/>
<path d="M0 0 C1.22589844 -0.0103125 2.45179688 -0.020625 3.71484375 -0.03125 C7.0625 0.5 7.0625 0.5 9.46484375 2.28515625 C11.4145839 4.98809675 11.76096475 7.20926116 11.5625 10.52734375 C10.85513607 13.31811551 9.38074639 15.01423353 7.04296875 16.65234375 C3.09231797 18.34325345 -0.75909646 18.22305153 -4.9375 17.5 C-8.0625 16.0625 -8.0625 16.0625 -9.9375 13.5 C-10.70061549 9.42256917 -10.67370914 6.00909773 -8.83984375 2.25 C-6.01050923 -0.35275537 -3.77795199 -0.03171418 0 0 Z " fill="#B0AFAE" transform="translate(296.9375,160.5)"/>
<path d="M0 0 C3.58875 -0.0928125 3.58875 -0.0928125 7.25 -0.1875 C8.37003418 -0.22846802 8.37003418 -0.22846802 9.51269531 -0.27026367 C12.52551245 -0.30794414 14.73209092 -0.13160446 17.44921875 1.203125 C19.4635114 3.53706611 19.56710095 4.87786689 19.5625 7.9375 C19.58441406 8.79214844 19.60632813 9.64679688 19.62890625 10.52734375 C19 13 19 13 16.921875 15.30078125 C11.60076689 18.39527594 6.0166961 17.22492322 0 17 C0 11.39 0 5.78 0 0 Z " fill="#C3C4C3" transform="translate(687,161)"/>
<path d="M0 0 C0.33 0 0.66 0 1 0 C1 3.63 1 7.26 1 11 C3.475 11.99 3.475 11.99 6 13 C7.2435228 13.68281612 8.47463412 14.38910385 9.6875 15.125 C12.65569437 17.16419941 12.65569437 17.16419941 15 17 C15.99 14.36 16.98 11.72 18 9 C20.97 9 23.94 9 27 9 C29.76337374 16.72170574 31.76306917 24.5987203 33.69921875 32.55834961 C34.25358013 34.82715218 34.82193153 37.09217508 35.390625 39.35742188 C35.7456518 40.80708129 36.09984866 42.25694426 36.453125 43.70703125 C36.62386536 44.37998734 36.79460571 45.05294342 36.97052002 45.74629211 C37.85118447 49.43916264 37.94908234 51.20367065 37 55 C33.7 55.66 30.4 56.32 27 57 C26.59910156 56.32195312 26.19820312 55.64390625 25.78515625 54.9453125 C18.74131578 43.41321994 9.20929906 30.6841486 -4 26 C-3.505 24.515 -3.505 24.515 -3 23 C9.40880627 28.8778556 20.27593059 39.02207571 27 51 C27 51.99 27 52.98 27 54 C29.64 53.67 32.28 53.34 35 53 C34.04200089 48.85517969 33.08162871 44.71091828 32.11914062 40.56713867 C31.79265581 39.1600601 31.46679778 37.75283593 31.14160156 36.34545898 C30.67160762 34.31194225 30.1992938 32.27897565 29.7265625 30.24609375 C29.44377441 29.02591553 29.16098633 27.8057373 28.86962891 26.54858398 C28.26836297 24.09507463 27.6076412 21.65565302 26.89990234 19.23071289 C26.07984782 16.28665931 25.81649883 14.02776923 26 11 C23.08369887 10.94250443 23.08369887 10.94250443 20 12 C18.10040371 15.37668094 18.10040371 15.37668094 17 19 C16.67 19.66 16.34 20.32 16 21 C12.41994762 20.31445806 9.61059261 18.82820732 6.4375 17.0625 C5.48746094 16.53785156 4.53742188 16.01320313 3.55859375 15.47265625 C1.66510839 14.38281811 -0.18219689 13.21186874 -2 12 C-1.34 12 -0.68 12 0 12 C0 8.04 0 4.08 0 0 Z " fill="#8F4C12" transform="translate(121,47)"/>
<path d="M0 0 C1.13566406 0.01289063 2.27132813 0.02578125 3.44140625 0.0390625 C4.57449219 0.02617187 5.70757812 0.01328125 6.875 0 C10.00390625 0.6640625 10.00390625 0.6640625 12.3828125 2.9140625 C14.02274878 5.6960267 14.54763233 7.10799033 14.50390625 10.2890625 C14.51421875 11.04445312 14.52453125 11.79984375 14.53515625 12.578125 C14.00390625 14.6640625 14.00390625 14.6640625 12.3828125 16.41015625 C9.27751967 18.04693622 6.940358 18.0975819 3.44140625 18.1015625 C2.30574219 18.12089844 1.17007812 18.14023438 0 18.16015625 C-2.99609375 17.6640625 -2.99609375 17.6640625 -4.875 15.8828125 C-6.54415419 12.57939934 -6.67636149 9.24547207 -5.99609375 5.6640625 C-4.49602191 2.03148435 -3.91489082 0.86770722 0 0 Z " fill="#C3C1C0" transform="translate(389.99609375,160.3359375)"/>
<path d="M0 0 C2.371875 0.103125 4.74375 0.20625 7.1875 0.3125 C7.1875 5.5925 7.1875 10.8725 7.1875 16.3125 C5.8675 16.3125 4.5475 16.3125 3.1875 16.3125 C3.1875 15.3225 3.1875 14.3325 3.1875 13.3125 C-0.7725 13.3125 -4.7325 13.3125 -8.8125 13.3125 C-8.8125 14.6325 -8.8125 15.9525 -8.8125 17.3125 C-10.1325 16.9825 -11.4525 16.6525 -12.8125 16.3125 C-12.94859913 14.58555325 -13.04499228 12.85545278 -13.125 11.125 C-13.18300781 10.16207031 -13.24101562 9.19914063 -13.30078125 8.20703125 C-12.04389077 0.75618447 -6.62923242 -0.40912248 0 0 Z " fill="#B9B8B7" transform="translate(451.8125,160.6875)"/>
<path d="M0 0 C0 5.61 0 11.22 0 17 C-1.32 17 -2.64 17 -4 17 C-4 15.68 -4 14.36 -4 13 C-7.63 13 -11.26 13 -15 13 C-15 13.99 -15 14.98 -15 16 C-16.32 16 -17.64 16 -19 16 C-19.08107583 14.06318839 -19.13922475 12.1254066 -19.1875 10.1875 C-19.22230469 9.10855469 -19.25710937 8.02960938 -19.29296875 6.91796875 C-19 4 -19 4 -17.67578125 2.17578125 C-12.64038373 -1.35721328 -5.82413325 -0.05766469 0 0 Z " fill="#ADADAC" transform="translate(255,161)"/>
<path d="M0 0 C0 5.28 0 10.56 0 16 C-1.32 16 -2.64 16 -4 16 C-4 15.01 -4 14.02 -4 13 C-7.63 13 -11.26 13 -15 13 C-15 14.32 -15 15.64 -15 17 C-16.32 17 -17.64 17 -19 17 C-19.10841951 15.08458862 -19.18578079 13.16740227 -19.25 11.25 C-19.29640625 10.18265625 -19.3428125 9.1153125 -19.390625 8.015625 C-19 5 -19 5 -17.171875 2.671875 C-12.10220899 -1.23067366 -6.10435468 -0.06563822 0 0 Z " fill="#B5B4B3" transform="translate(683,161)"/>
<path d="M0 0 C2.81944008 2.85850853 3.43145954 5.03745857 3.4375 9 C3.3241382 12.34170863 3.16423011 13.7347052 1.375 16.625 C-1.73458785 18.4252877 -3.46897307 18.67615409 -7 18 C-10.62232277 14.37767723 -10.35434402 10.14027279 -10.3984375 5.3046875 C-9.38574134 -0.5530648 -5.23028321 -0.6537854 0 0 Z " fill="#140C03" transform="translate(494,110)"/>
<path d="M0 0 C3.00381888 3.00381888 2.94989002 5.29846032 3.25 9.5 C3 13 3 13 1.875 15.4375 C0 17 0 17 -2.875 17.4375 C-6.57530266 16.91945763 -8.32985819 16.67014181 -11 14 C-11.80762697 9.05432554 -11.80693754 5.21040631 -9 1 C-5.75778445 -0.08073852 -3.39597063 -0.21676408 0 0 Z " fill="#0D0903" transform="translate(428,110)"/>
<path d="M0 0 C5.61 0 11.22 0 17 0 C17 1.32 17 2.64 17 4 C12.71 4 8.42 4 4 4 C4 4.66 4 5.32 4 6 C7.63 6 11.26 6 15 6 C15 7.32 15 8.64 15 10 C11.04 10 7.08 10 3 10 C3 10.99 3 11.98 3 13 C7.29 13 11.58 13 16 13 C16 13.99 16 14.98 16 16 C13.52076199 16.02685095 11.0418116 16.04676547 8.5625 16.0625 C7.85544922 16.07087891 7.14839844 16.07925781 6.41992188 16.08789062 C4.61306441 16.09653588 2.80612397 16.05220011 1 16 C0 15 0 15 -0.09765625 11.62109375 C-0.09191424 10.22652508 -0.07890228 8.83198403 -0.0625 7.4375 C-0.041875 4.983125 -0.02125 2.52875 0 0 Z " fill="#8C8A89" transform="translate(546,161)"/>
<path d="M0 0 C1.47668858 0.0133035 2.95331108 0.03716415 4.4296875 0.0703125 C5.18378906 0.07933594 5.93789063 0.08835938 6.71484375 0.09765625 C8.57826004 0.1212438 10.44151343 0.15711531 12.3046875 0.1953125 C12.3046875 1.1853125 12.3046875 2.1753125 12.3046875 3.1953125 C7.6846875 3.5253125 3.0646875 3.8553125 -1.6953125 4.1953125 C-2.0253125 7.1653125 -2.3553125 10.1353125 -2.6953125 13.1953125 C1.2646875 13.1953125 5.2246875 13.1953125 9.3046875 13.1953125 C9.3046875 12.2053125 9.3046875 11.2153125 9.3046875 10.1953125 C6.3346875 10.1953125 3.3646875 10.1953125 0.3046875 10.1953125 C0.3046875 9.2053125 0.3046875 8.2153125 0.3046875 7.1953125 C4.2646875 7.1953125 8.2246875 7.1953125 12.3046875 7.1953125 C12.3046875 10.4953125 12.3046875 13.7953125 12.3046875 17.1953125 C9.86652165 17.2762848 7.43104366 17.33578222 4.9921875 17.3828125 C3.95674805 17.42051758 3.95674805 17.42051758 2.90039062 17.45898438 C0.04631541 17.50034778 -2.14878299 17.51103672 -4.65625 16.0625 C-6.15622538 13.36705552 -6.0562227 11.1975503 -6.0078125 8.1328125 C-6.00394531 7.06933594 -6.00007812 6.00585938 -5.99609375 4.91015625 C-5.5087946 0.51180681 -4.33348762 0.22904269 0 0 Z " fill="#CFCDCB" transform="translate(571.6953125,160.8046875)"/>
<path d="M0 0 C2.79192205 -0.05380578 5.5828141 -0.09357669 8.375 -0.125 C9.1690625 -0.14175781 9.963125 -0.15851563 10.78125 -0.17578125 C12.85492015 -0.19335473 14.92883241 -0.10335168 17 0 C19 2 19 2 19.3125 5.5 C19.209375 6.655 19.10625 7.81 19 9 C18.01 9.66 17.02 10.32 16 11 C16.66 12.65 17.32 14.3 18 16 C13.15409462 15.55946315 9.51858133 13.25494123 6 10 C6 9.34 6 8.68 6 8 C10.455 7.505 10.455 7.505 15 7 C15 6.01 15 5.02 15 4 C11.37 3.67 7.74 3.34 4 3 C4 7.62 4 12.24 4 17 C2.68 16.67 1.36 16.34 0 16 C0 10.72 0 5.44 0 0 Z " fill="#A7A5A4" transform="translate(611,161)"/>
<path d="M0 0 C1.38294718 0.01329757 2.76582404 0.03715018 4.1484375 0.0703125 C4.85484375 0.07933594 5.56125 0.08835938 6.2890625 0.09765625 C8.03399848 0.12123647 9.77876045 0.15710789 11.5234375 0.1953125 C11.5234375 1.1853125 11.5234375 2.1753125 11.5234375 3.1953125 C6.9034375 3.1953125 2.2834375 3.1953125 -2.4765625 3.1953125 C-2.4765625 4.5153125 -2.4765625 5.8353125 -2.4765625 7.1953125 C-1.10371094 7.16050781 -1.10371094 7.16050781 0.296875 7.125 C1.48539063 7.10695312 2.67390625 7.08890625 3.8984375 7.0703125 C5.08179688 7.04710937 6.26515625 7.02390625 7.484375 7 C10.5234375 7.1953125 10.5234375 7.1953125 12.5234375 9.1953125 C12.7734375 11.6953125 12.7734375 11.6953125 12.5234375 14.1953125 C10.5234375 16.1953125 10.5234375 16.1953125 6.828125 16.390625 C5.35143642 16.3773215 3.87481392 16.35346085 2.3984375 16.3203125 C1.64433594 16.31128906 0.89023437 16.30226562 0.11328125 16.29296875 C-1.75013504 16.2693812 -3.61338843 16.23350969 -5.4765625 16.1953125 C-5.4765625 15.2053125 -5.4765625 14.2153125 -5.4765625 13.1953125 C-0.5265625 13.1953125 4.4234375 13.1953125 9.5234375 13.1953125 C9.5234375 12.2053125 9.5234375 11.2153125 9.5234375 10.1953125 C8.61980469 10.23011719 7.71617187 10.26492187 6.78515625 10.30078125 C5.60566406 10.32785156 4.42617188 10.35492188 3.2109375 10.3828125 C1.45330078 10.43501953 1.45330078 10.43501953 -0.33984375 10.48828125 C-3.4765625 10.1953125 -3.4765625 10.1953125 -5.40625 8.84375 C-6.4765625 7.1953125 -6.4765625 7.1953125 -6.2890625 4.6328125 C-4.98679316 0.72600449 -4.14477941 0.23285278 0 0 Z " fill="#C1C1C0" transform="translate(529.4765625,160.8046875)"/>
<path d="M0 0 C0.495 1.98 0.495 1.98 1 4 C3.64 4.33 6.28 4.66 9 5 C9 5.33 9 5.66 9 6 C7.75605469 6.02578125 6.51210937 6.0515625 5.23046875 6.078125 C-4.21669656 6.36492073 -12.30967917 6.95371305 -21 11 C-22.216875 11.45375 -23.43375 11.9075 -24.6875 12.375 C-33.22608096 16.56373783 -39.43712501 22.09281252 -43 31 C-38.38 31 -33.76 31 -29 31 C-29 31.33 -29 31.66 -29 32 C-34.61 32 -40.22 32 -46 32 C-42.96691187 21.38419154 -36.38047796 15.04216785 -26.953125 9.47265625 C-18.16639209 5.09091246 -9.77940213 3.29447199 0 4 C0 2.68 0 1.36 0 0 Z " fill="#87490D" transform="translate(99,51)"/>
<path d="M0 0 C0 4 0 4 -1.28515625 5.59765625 C-7.9204499 11.06630486 -13.37400592 13.45399969 -22 13 C-20.65506155 8.29271542 -18.15043438 5.46484981 -14 3 C-9.28002477 1.13136628 -5.09038608 0 0 0 Z " fill="#0B0703" transform="translate(94,69)"/>
<path d="M0 0 C1.38294718 0.01329757 2.76582404 0.03715018 4.1484375 0.0703125 C4.85484375 0.07933594 5.56125 0.08835938 6.2890625 0.09765625 C8.03399848 0.12123647 9.77876045 0.15710789 11.5234375 0.1953125 C11.5234375 1.1853125 11.5234375 2.1753125 11.5234375 3.1953125 C6.9034375 3.1953125 2.2834375 3.1953125 -2.4765625 3.1953125 C-2.4765625 4.5153125 -2.4765625 5.8353125 -2.4765625 7.1953125 C-1.10371094 7.16050781 -1.10371094 7.16050781 0.296875 7.125 C1.48539062 7.10695312 2.67390625 7.08890625 3.8984375 7.0703125 C5.08179688 7.04710937 6.26515625 7.02390625 7.484375 7 C10.5234375 7.1953125 10.5234375 7.1953125 12.5234375 9.1953125 C12.6484375 12.3203125 12.6484375 12.3203125 12.5234375 15.1953125 C9.33519182 16.78943534 5.89447088 16.29705985 2.3984375 16.2578125 C1.64433594 16.25330078 0.89023437 16.24878906 0.11328125 16.24414062 C-1.75003377 16.23234749 -3.61330805 16.21441192 -5.4765625 16.1953125 C-5.4765625 15.5353125 -5.4765625 14.8753125 -5.4765625 14.1953125 C-0.8565625 13.8653125 3.7634375 13.5353125 8.5234375 13.1953125 C8.8534375 12.2053125 9.1834375 11.2153125 9.5234375 10.1953125 C8.60820312 10.21851563 7.69296875 10.24171875 6.75 10.265625 C4.96722656 10.29269531 4.96722656 10.29269531 3.1484375 10.3203125 C1.37339844 10.35511719 1.37339844 10.35511719 -0.4375 10.390625 C-3.4765625 10.1953125 -3.4765625 10.1953125 -5.4765625 8.1953125 C-5.7265625 5.1953125 -5.7265625 5.1953125 -5.4765625 2.1953125 C-3.4765625 0.1953125 -3.4765625 0.1953125 0 0 Z " fill="#D1CFCE" transform="translate(476.4765625,160.8046875)"/>
<path d="M0 0 C8.13448006 -0.35887412 8.13448006 -0.35887412 11.5625 1.0625 C13.81151056 4.09377511 13.52134619 6.35057669 13 10 C11.5625 11.9375 11.5625 11.9375 9 13 C5.9521497 13.23081827 3.06655253 13.13528908 0 13 C0 8.71 0 4.42 0 0 Z " fill="#100A03" transform="translate(227,97)"/>
<path d="M0 0 C4.25692971 1.06423243 5.50657298 2.0797339 8.625 5 C11.58030757 7.83496105 11.58030757 7.83496105 15 10 C15 6.7 15 3.4 15 0 C15.99 0 16.98 0 18 0 C18 5.28 18 10.56 18 16 C13.54564712 14.88641178 11.71968952 13.37021376 8.25 10.4375 C7.26515625 9.61121094 6.2803125 8.78492188 5.265625 7.93359375 C4.51796875 7.29550781 3.7703125 6.65742188 3 6 C3 9.63 3 13.26 3 17 C2.01 17 1.02 17 0 17 C0 11.39 0 5.78 0 0 Z " fill="#C2C0BF" transform="translate(408,161)"/>
<path d="M0 0 C1.97909398 -0.02686553 3.95828971 -0.04633375 5.9375 -0.0625 C7.03964844 -0.07410156 8.14179687 -0.08570313 9.27734375 -0.09765625 C12 0 12 0 13 1 C13.27314815 6.73611111 13.27314815 6.73611111 13 9 C11 11 11 11 8.3984375 11.1953125 C5.59895833 11.13020833 2.79947917 11.06510417 0 11 C0 7.37 0 3.74 0 0 Z " fill="#1D1D1C" transform="translate(690,164)"/>
<path d="M0 0 C5.28 0 10.56 0 16 0 C16 0.66 16 1.32 16 2 C11.71 2 7.42 2 3 2 C3 3.32 3 4.64 3 6 C7.29 6 11.58 6 16 6 C15.67 6.99 15.34 7.98 15 9 C11.04 9 7.08 9 3 9 C3 10.32 3 11.64 3 13 C7.29 13 11.58 13 16 13 C16 13.66 16 14.32 16 15 C10.72 15 5.44 15 0 15 C0 10.05 0 5.1 0 0 Z " fill="#E0DFDE" transform="translate(335,162)"/>
<path d="M0 0 C1.65 0.33 3.3 0.66 5 1 C5.495 7.93 5.495 7.93 6 15 C10.95 15.33 15.9 15.66 21 16 C21.33 15.34 21.66 14.68 22 14 C22 14.99 22 15.98 22 17 C16.39 17 10.78 17 5 17 C4.34 15.35 3.68 13.7 3 12 C2.34 12.66 1.68 13.32 1 14 C0.34 12.02 -0.32 10.04 -1 8 C-5.29 7.67 -9.58 7.34 -14 7 C-14 5.68 -14 4.36 -14 3 C-9.38 3 -4.76 3 0 3 C0 2.01 0 1.02 0 0 Z " fill="#383838" transform="translate(541,161)"/>
<path d="M0 0 C1.32 0 2.64 0 4 0 C4 5.28 4 10.56 4 16 C0.1328125 16.0928125 0.1328125 16.0928125 -3.8125 16.1875 C-4.62050049 16.21481201 -5.42850098 16.24212402 -6.26098633 16.27026367 C-9.15763152 16.30405968 -11.44134167 16.31424531 -14 14.875 C-15.46145498 12.13477191 -15.28687083 9.89299588 -15.1875 6.8125 C-15.16042969 5.72582031 -15.13335937 4.63914063 -15.10546875 3.51953125 C-15.07066406 2.68808594 -15.03585937 1.85664063 -15 1 C-14.34 1 -13.68 1 -13 1 C-12.93941406 1.71027344 -12.87882812 2.42054688 -12.81640625 3.15234375 C-12.73261719 4.07144531 -12.64882813 4.99054688 -12.5625 5.9375 C-12.48128906 6.85402344 -12.40007812 7.77054688 -12.31640625 8.71484375 C-12.23955024 10.96159732 -12.23955024 10.96159732 -11 12 C-9.15108054 12.23363881 -7.29511969 12.41303635 -5.4375 12.5625 C-3.643125 12.706875 -1.84875 12.85125 0 13 C0 8.71 0 4.42 0 0 Z " fill="#C2C1C1" transform="translate(508,161)"/>
<path d="M0 0 C0.99 0 1.98 0 3 0 C3 5.28 3 10.56 3 16 C-1.02218025 14.99445494 -2.0891602 14.31980091 -5 11.625 C-7.6082444 9.23071315 -10.14725573 7.13955821 -13 5 C-13 8.63 -13 12.26 -13 16 C-13.66 16 -14.32 16 -15 16 C-15 11.05 -15 6.1 -15 1 C-10.75182524 2.06204369 -9.06604677 3.31367176 -5.75 6.0625 C-4.85796875 6.79597656 -3.9659375 7.52945313 -3.046875 8.28515625 C-2.37140625 8.85105469 -1.6959375 9.41695312 -1 10 C-0.67 6.7 -0.34 3.4 0 0 Z " fill="#BABAB9" transform="translate(327,161)"/>
<path d="M0 0 C1.98 0 3.96 0 6 0 C8.68125591 2.68125591 8.29880654 4.14124916 8.3125 7.875 C8.32925781 8.92429688 8.34601562 9.97359375 8.36328125 11.0546875 C7.96460275 14.28698414 7.16968109 15.62995258 5 18 C3.35 17.67 1.7 17.34 0 17 C0 11.39 0 5.78 0 0 Z " fill="#141414" transform="translate(633,161)"/>
<path d="M0 0 C8.49609375 -0.09765625 8.49609375 -0.09765625 11 0 C12.89488952 1.89488952 12.18019112 4.57139146 12.23046875 7.08984375 C12 9 12 9 10 11 C7.6171875 11.1953125 7.6171875 11.1953125 4.875 11.125 C2.461875 11.063125 2.461875 11.063125 0 11 C0 7.37 0 3.74 0 0 Z " fill="#141414" transform="translate(645,164)"/>
<path d="M0 0 C0.99 0 1.98 0 3 0 C3 3 3 3 1.6875 4.38671875 C0.125 5.59114583 -1.4375 6.79557292 -3 8 C-1.47291037 11.43595166 0.59927045 14.11912454 3 17 C-1.64157706 16.37275986 -1.64157706 16.37275986 -3.5625 14.375 C-4.036875 13.92125 -4.51125 13.4675 -5 13 C-7.62753374 13.16422086 -8.69904966 13.69904966 -10.5625 15.5625 C-11.036875 16.036875 -11.51125 16.51125 -12 17 C-12.99 17 -13.98 17 -15 17 C-13.70700306 14.11562221 -12.34058637 12.12780579 -10 10 C-11.00445663 7.75928906 -11.87754985 6.12245015 -13.625 4.375 C-14.07875 3.92125 -14.5325 3.4675 -15 3 C-15 2.34 -15 1.68 -15 1 C-12.13275314 1.57344937 -11.1385485 1.8614515 -9 4 C-6.58517587 4.50059916 -6.58517587 4.50059916 -4 4 C-2.62689293 2.70766393 -1.28965176 1.37562854 0 0 Z " fill="#C3BFBE" transform="translate(370,160)"/>
<path d="M0 0 C0.66 0 1.32 0 2 0 C2.06058594 0.71027344 2.12117187 1.42054688 2.18359375 2.15234375 C2.26738281 3.07144531 2.35117187 3.99054688 2.4375 4.9375 C2.51871094 5.85402344 2.59992187 6.77054688 2.68359375 7.71484375 C2.76044976 9.96159732 2.76044976 9.96159732 4 11 C5.84891946 11.23363881 7.70488031 11.41303635 9.5625 11.5625 C11.356875 11.706875 13.15125 11.85125 15 12 C15 8.04 15 4.08 15 0 C15.99 0 16.98 0 18 0 C18 5.28 18 10.56 18 16 C4.73684211 16.49122807 4.73684211 16.49122807 1.5625 14.375 C-0.45733168 11.30485585 -0.40840924 9.39341258 -0.25 5.75 C-0.21390625 4.67234375 -0.1778125 3.5946875 -0.140625 2.484375 C-0.09421875 1.66453125 -0.0478125 0.8446875 0 0 Z " fill="#898989" transform="translate(589,162)"/>
<path d="M0 0 C1.81242052 -0.02687279 3.62495233 -0.04633715 5.4375 -0.0625 C6.44683594 -0.07410156 7.45617187 -0.08570313 8.49609375 -0.09765625 C11 0 11 0 12 1 C12.1328125 2.8125 12.1328125 2.8125 12.125 5 C12.12757813 5.721875 12.13015625 6.44375 12.1328125 7.1875 C12 9 12 9 11 10 C9.35659133 10.09854655 7.7088539 10.12972411 6.0625 10.125 C5.16660156 10.12757813 4.27070313 10.13015625 3.34765625 10.1328125 C1 10 1 10 -1 9 C-0.67 6.03 -0.34 3.06 0 0 Z " fill="#0F0E0E" transform="translate(292,164)"/>
<path d="M0 0 C4.95 0 9.9 0 15 0 C15.4846875 1.02738281 15.969375 2.05476562 16.46875 3.11328125 C23.08180255 16.89297522 30.10212962 28.79870138 43.80078125 36.59375 C44.52652344 37.0578125 45.25226563 37.521875 46 38 C46 38.66 46 39.32 46 40 C40.92162788 38.69262146 37.70672282 36.38983495 34 32.8125 C33.4730957 32.31202148 32.94619141 31.81154297 32.40332031 31.29589844 C30.92337835 29.87651206 29.46103689 28.43883881 28 27 C27.39671875 26.42121094 26.7934375 25.84242188 26.171875 25.24609375 C21.55810185 20.39149178 14 9.7923458 14 3 C12.80375 2.855625 11.6075 2.71125 10.375 2.5625 C6.8994842 2.12960657 3.45049966 1.60383744 0 1 C0 0.67 0 0.34 0 0 Z " fill="#9C5312" transform="translate(45,144)"/>
<path d="M0 0 C1.19496094 0.02320313 1.19496094 0.02320313 2.4140625 0.046875 C4.375 0.25 4.375 0.25 5.375 1.25 C5.5078125 3.0625 5.5078125 3.0625 5.5 5.25 C5.50257813 5.971875 5.50515625 6.69375 5.5078125 7.4375 C5.375 9.25 5.375 9.25 4.375 10.25 C2.54384117 10.34851171 0.70880067 10.37972629 -1.125 10.375 C-2.1253125 10.37757813 -3.125625 10.38015625 -4.15625 10.3828125 C-6.625 10.25 -6.625 10.25 -7.625 9.25 C-8.09122123 3.88845583 -8.09122123 3.88845583 -6.3984375 1.5703125 C-4.12378797 -0.12314905 -2.80668001 -0.0914228 0 0 Z " fill="#0C0C0C" transform="translate(394.625,163.75)"/>
<path d="M0 0 C0.33 0.66 0.66 1.32 1 2 C1.66 2 2.32 2 3 2 C3.33 6.29 3.66 10.58 4 15 C2.68 15.33 1.36 15.66 0 16 C-0.33 15.34 -0.66 14.68 -1 14 C-4.04581269 13.53045739 -4.04581269 13.53045739 -7.5625 13.375 C-8.76003906 13.30023438 -9.95757813 13.22546875 -11.19140625 13.1484375 C-12.11824219 13.09945312 -13.04507813 13.05046875 -14 13 C-14 12.01 -14 11.02 -14 10 C-8.06 9.505 -8.06 9.505 -2 9 C-2 8.34 -2 7.68 -2 7 C-5.63 6.67 -9.26 6.34 -13 6 C-13 5.34 -13 4.68 -13 4 C-8.71 4 -4.42 4 0 4 C0 2.68 0 1.36 0 0 Z " fill="#131212" transform="translate(563,161)"/>
<path d="M0 0 C1.0528418 0.02707031 1.0528418 0.02707031 2.12695312 0.0546875 C3.85605436 0.10173787 5.58445205 0.17348127 7.3125 0.25 C7.3125 1.24 7.3125 2.23 7.3125 3.25 C2.6925 3.58 -1.9275 3.91 -6.6875 4.25 C-6.708125 5.549375 -6.72875 6.84875 -6.75 8.1875 C-6.76160156 8.91839844 -6.77320313 9.64929688 -6.78515625 10.40234375 C-6.89311184 12.26732141 -6.89311184 12.26732141 -5.6875 13.25 C-3.67155418 13.48427778 -1.649026 13.66336124 0.375 13.8125 C1.47972656 13.89628906 2.58445312 13.98007813 3.72265625 14.06640625 C5.00462891 14.15728516 5.00462891 14.15728516 6.3125 14.25 C6.3125 14.91 6.3125 15.57 6.3125 16.25 C3.66659986 16.27684679 1.02096904 16.29676357 -1.625 16.3125 C-2.37974609 16.32087891 -3.13449219 16.32925781 -3.91210938 16.33789062 C-5.83744313 16.34652441 -7.76285581 16.30224333 -9.6875 16.25 C-11.41084021 14.52665979 -10.90021834 12.2831379 -10.9375 9.9375 C-10.96328125 8.97199219 -10.9890625 8.00648438 -11.015625 7.01171875 C-10.17679866 -0.04840295 -6.2986272 -0.3058157 0 0 Z " fill="#C5C4C1" transform="translate(277.6875,160.75)"/>
<path d="M0 0 C0.75539063 -0.00386719 1.51078125 -0.00773437 2.2890625 -0.01171875 C6.20085931 -0.00487994 9.80521219 0.16624848 13.625 1.125 C13.625 1.455 13.625 1.785 13.625 2.125 C6.695 1.63 6.695 1.63 -0.375 1.125 C-0.705 2.445 -1.035 3.765 -1.375 5.125 C-1.705 4.465 -2.035 3.805 -2.375 3.125 C-14.15510789 5.49478761 -14.15510789 5.49478761 -22.75 13.375 C-23.28625 14.2825 -23.8225 15.19 -24.375 16.125 C-18.435 15.63 -18.435 15.63 -12.375 15.125 C-15.68871 17.33414 -16.7196021 17.34981553 -20.5625 17.25 C-21.46355469 17.23195313 -22.36460938 17.21390625 -23.29296875 17.1953125 C-23.98003906 17.17210938 -24.66710937 17.14890625 -25.375 17.125 C-25.98828125 15.3046875 -25.98828125 15.3046875 -26.375 13.125 C-20.45801447 3.73943675 -10.660745 -0.05402405 0 0 Z " fill="#89490E" transform="translate(96.375,65.875)"/>
<path d="M0 0 C0.66 0 1.32 0 2 0 C4.88315357 8.6494607 3.89560053 20.28469912 0.33203125 28.5703125 C-3.27545274 35.15053256 -7.91530887 40.61336221 -14 45 C-14.66 45 -15.32 45 -16 45 C-14.91708127 41.75124381 -14.41352203 41.33868551 -11.8125 39.375 C-5.54458444 34.17753092 -1.72789413 27.95634972 0 20 C0.22119935 16.51497461 0.19032985 13.05262162 0.125 9.5625 C0.11597656 8.64017578 0.10695312 7.71785156 0.09765625 6.76757812 C0.0742766 4.51144191 0.04150916 2.25586316 0 0 Z " fill="#8F4F14" transform="translate(161,145)"/>
<path d="M0 0 C3.0625 0.3125 3.0625 0.3125 4.9375 1.375 C6.66194167 4.34487177 6.31090147 6.95908015 6.0625 10.3125 C4.17121658 12.20378342 1.49182274 11.5491852 -1.02734375 11.640625 C-1.65769531 11.53234375 -2.28804687 11.4240625 -2.9375 11.3125 C-5.23913882 7.86004176 -5.28240322 6.36511287 -4.9375 2.3125 C-2.9375 0.3125 -2.9375 0.3125 0 0 Z " fill="#DB750A" transform="translate(699.9375,123.6875)"/>
<path d="M0 0 C3.0625 0.3125 3.0625 0.3125 4.9375 1.5 C6.46909584 3.96757108 6.49072025 5.45769831 6.0625 8.3125 C4.9375 10.125 4.9375 10.125 3.0625 11.3125 C0 11.625 0 11.625 -2.9375 11.3125 C-4.9375 9.3125 -4.9375 9.3125 -5.1875 5.8125 C-4.87458101 1.43163414 -4.40975115 0.46912246 0 0 Z " fill="#DB7309" transform="translate(576.9375,123.6875)"/>
<path d="M0 0 C0.66 0 1.32 0 2 0 C2.67184618 2.10251861 3.33730968 4.20707763 4 6.3125 C4.37125 7.48425781 4.7425 8.65601562 5.125 9.86328125 C6 13 6 13 6 16 C2.7 16 -0.6 16 -4 16 C-2.96168893 10.51178434 -1.93581306 5.25434973 0 0 Z " fill="#0E0A04" transform="translate(609,100)"/>
<path d="M0 0 C1.8125 1.1875 1.8125 1.1875 3 3 C3.42822025 5.85480169 3.40659584 7.34492892 1.875 9.8125 C-0.81090902 11.51357571 -2.88657099 11.26497268 -6 11 C-6.66 10.67 -7.32 10.34 -8 10 C-8.36272727 3.59181818 -8.36272727 3.59181818 -6.8125 1.0625 C-4.33950907 -0.38718434 -2.82115488 -0.42317323 0 0 Z " fill="#E17306" transform="translate(646,124)"/>
<path d="M0 0 C5.28 0 10.56 0 16 0 C16 0.66 16 1.32 16 2 C11.38 2 6.76 2 2 2 C2 5.63 2 9.26 2 13 C6.62 13 11.24 13 16 13 C16 13.66 16 14.32 16 15 C13.52076199 15.02685095 11.0418116 15.04676547 8.5625 15.0625 C7.85544922 15.07087891 7.14839844 15.07925781 6.41992188 15.08789062 C4.61306441 15.09653588 2.80612397 15.05220011 1 15 C0 14 0 14 -0.09765625 10.83984375 C-0.04882812 5.41992188 -0.04882812 5.41992188 0 0 Z " fill="#E2E0DE" transform="translate(546,162)"/>
<path d="M0 0 C7.92 0 15.84 0 24 0 C23.01 0.33 22.02 0.66 21 1 C20.34 2.32 19.68 3.64 19 5 C14.05 5 9.1 5 4 5 C4 4.67 4 4.34 4 4 C8.29 4 12.58 4 17 4 C17 3.34 17 2.68 17 2 C11.72 2 6.44 2 1 2 C1 6.62 1 11.24 1 16 C0.67 16 0.34 16 0 16 C0 10.72 0 5.44 0 0 Z " fill="#565555" transform="translate(334,160)"/>
<path d="M0 0 C3.96 0 7.92 0 12 0 C12 0.33 12 0.66 12 1 C8.37 1 4.74 1 1 1 C4.73829293 7.69777483 9.27473494 10.83105146 16.59765625 13.12890625 C19.0973203 13.81803032 21.60512581 14.4784778 24.12109375 15.10546875 C25.07113281 15.40066406 26.02117187 15.69585937 27 16 C27.33 16.66 27.66 17.32 28 18 C18.43550575 17.60064742 10.5857413 14.99802801 3 9 C0.5625 5.9375 0.5625 5.9375 -1 3 C-0.67 2.01 -0.34 1.02 0 0 Z " fill="#95520E" transform="translate(72,94)"/>
<path d="M0 0 C0.99 0 1.98 0 3 0 C3 4.62 3 9.24 3 14 C7.62 14 12.24 14 17 14 C17 14.66 17 15.32 17 16 C11.39 16 5.78 16 0 16 C0 10.72 0 5.44 0 0 Z " fill="#D4D5D4" transform="translate(216,161)"/>
<path d="M0 0 C3.63 0 7.26 0 11 0 C11.33 1.32 11.66 2.64 12 4 C11 5 11 5 8.93359375 5.09765625 C8.10988281 5.08605469 7.28617188 5.07445312 6.4375 5.0625 C5.61121094 5.05347656 4.78492188 5.04445312 3.93359375 5.03515625 C3.29550781 5.02355469 2.65742187 5.01195312 2 5 C2.99 6.32 3.98 7.64 5 9 C3.68 9 2.36 9 1 9 C0.67 10.32 0.34 11.64 0 13 C0 8.71 0 4.42 0 0 Z " fill="#100F0F" transform="translate(615,164)"/>
<path d="M0 0 C3.96 0 7.92 0 12 0 C12 2.97 12 5.94 12 9 C7.38 9 2.76 9 -2 9 C-2.33 8.34 -2.66 7.68 -3 7 C1.29 7 5.58 7 10 7 C10 5.68 10 4.36 10 3 C6.7 3 3.4 3 0 3 C0 2.01 0 1.02 0 0 Z " fill="#D2D2D0" transform="translate(572,168)"/>
<path d="M0 0 C1.37478516 0.01740234 1.37478516 0.01740234 2.77734375 0.03515625 C3.69644531 0.04417969 4.61554687 0.05320313 5.5625 0.0625 C6.27277344 0.07410156 6.98304688 0.08570313 7.71484375 0.09765625 C7.71484375 2.07765625 7.71484375 4.05765625 7.71484375 6.09765625 C3.75484375 6.09765625 -0.20515625 6.09765625 -4.28515625 6.09765625 C-3.0920528 0.13213901 -3.0920528 0.13213901 0 0 Z " fill="#1D1D1C" transform="translate(672.28515625,163.90234375)"/>
<path d="M0 0 C1.37478516 0.01740234 1.37478516 0.01740234 2.77734375 0.03515625 C3.69644531 0.04417969 4.61554688 0.05320313 5.5625 0.0625 C6.27277344 0.07410156 6.98304688 0.08570313 7.71484375 0.09765625 C7.71484375 2.07765625 7.71484375 4.05765625 7.71484375 6.09765625 C3.75484375 6.09765625 -0.20515625 6.09765625 -4.28515625 6.09765625 C-3.0920528 0.13213901 -3.0920528 0.13213901 0 0 Z " fill="#1D1C1B" transform="translate(243.28515625,163.90234375)"/>
<path d="M0 0 C1.37478516 0.01740234 1.37478516 0.01740234 2.77734375 0.03515625 C3.69644531 0.04417969 4.61554688 0.05320313 5.5625 0.0625 C6.27277344 0.07410156 6.98304688 0.08570313 7.71484375 0.09765625 C7.71484375 2.07765625 7.71484375 4.05765625 7.71484375 6.09765625 C3.75484375 6.09765625 -0.20515625 6.09765625 -4.28515625 6.09765625 C-3.0920528 0.13213901 -3.0920528 0.13213901 0 0 Z " fill="#1D1D1C" transform="translate(447.28515625,163.90234375)"/>
<path d="M0 0 C0 0.33 0 0.66 0 1 C-4.455 1.495 -4.455 1.495 -9 2 C-9.165 3.44375 -9.33 4.8875 -9.5 6.375 C-9.5928125 7.18710938 -9.685625 7.99921875 -9.78125 8.8359375 C-10.03352351 10.96912825 -10.03352351 10.96912825 -10 13 C-8.081875 12.938125 -8.081875 12.938125 -6.125 12.875 C-3.9453125 12.8046875 -3.9453125 12.8046875 -2 13 C-1.34 13.66 -0.68 14.32 0 15 C-1.77007714 15.08114106 -3.54122098 15.13925505 -5.3125 15.1875 C-6.29863281 15.22230469 -7.28476562 15.25710937 -8.30078125 15.29296875 C-11 15 -11 15 -12.828125 13.734375 C-14.86160047 10.7248313 -14.58813648 7.43886861 -14 4 C-10.9733152 -1.50306327 -5.53719757 -0.38041815 0 0 Z " fill="#DAD9D6" transform="translate(398,162)"/>
<path d="M0 0 C0.66 0 1.32 0 2 0 C1.67 2.97 1.34 5.94 1 9 C0.34 8.67 -0.32 8.34 -1 8 C-3.204364 7.77049681 -5.41392173 7.58924067 -7.625 7.4375 C-8.81351562 7.35371094 -10.00203125 7.26992187 -11.2265625 7.18359375 C-12.59941406 7.09271484 -12.59941406 7.09271484 -14 7 C-14 5.68 -14 4.36 -14 3 C-9.38 3 -4.76 3 0 3 C0 2.01 0 1.02 0 0 Z " fill="#2E2D2D" transform="translate(488,161)"/>
<path d="M0 0 C2.05078125 0.03255208 4.1015625 0.06510417 6.15234375 0.09765625 C6.51310324 4.54702334 6.51310324 4.54702334 4.96484375 6.91015625 C2.53877435 8.49965 0.99836969 8.46253137 -1.84765625 8.09765625 C-2.50765625 7.43765625 -3.16765625 6.77765625 -3.84765625 6.09765625 C-3.12417691 0.16512563 -3.12417691 0.16512563 0 0 Z " fill="#180E04" transform="translate(267.84765625,119.90234375)"/>
<path d="M0 0 C0.33 0 0.66 0 1 0 C1 3.96 1 7.92 1 12 C2.77375 11.87625 4.5475 11.7525 6.375 11.625 C7.37273438 11.55539063 8.37046875 11.48578125 9.3984375 11.4140625 C12.15508879 11.23636036 12.15508879 11.23636036 14 9 C14.40047444 6.67724823 14.7397104 4.34260643 15 2 C15.66 2.33 16.32 2.66 17 3 C17.36396075 10.40053524 17.36396075 10.40053524 15.9375 12.75 C11.59909456 15.54897125 4.87260601 14.13410842 0 14 C0 9.38 0 4.76 0 0 Z " fill="#E1E0DE" transform="translate(643,163)"/>
<path d="M0 0 C1.32 0 2.64 0 4 0 C4 5.28 4 10.56 4 16 C2.68 16 1.36 16 0 16 C0 10.72 0 5.44 0 0 Z " fill="#AFAFAE" transform="translate(634,161)"/>
<path d="M0 0 C1.32 0 2.64 0 4 0 C4 5.28 4 10.56 4 16 C2.68 16 1.36 16 0 16 C0 10.72 0 5.44 0 0 Z " fill="#AAA9A6" transform="translate(376,161)"/>
<path d="M0 0 C2.82189464 0.52910525 5.54723616 1.15487816 8.3125 1.9375 C15.06090016 3.67354878 22.09096792 4.21183372 29 5 C29 5.33 29 5.66 29 6 C18.23596845 6.43056126 9.07436764 6.4248203 -1 2 C-0.67 1.34 -0.34 0.68 0 0 Z " fill="#7D4510" transform="translate(91,183)"/>
<path d="M0 0 C4.62 0 9.24 0 14 0 C14 0.33 14 0.66 14 1 C10.37 1 6.74 1 3 1 C3 5.95 3 10.9 3 16 C2.01 16 1.02 16 0 16 C0 10.72 0 5.44 0 0 Z " fill="#D4D3D2" transform="translate(612,162)"/>
<path d="M0 0 C1.33333333 0 2.66666667 0 4 0 C4 5.28 4 10.56 4 16 C2.68 16 1.36 16 0 16 C0 10.72 0 5.44 0 0 Z " fill="#212020" transform="translate(683,161)"/>
<path d="M0 0 C1.485 0.99 1.485 0.99 3 2 C3.41137202 5.03866799 3.13193156 7.92159703 3 11 C6.96 11 10.92 11 15 11 C15.33 10.01 15.66 9.02 16 8 C16 9.32 16 10.64 16 12 C10.06 12.495 10.06 12.495 4 13 C10.93 13.495 10.93 13.495 18 14 C18 14.33 18 14.66 18 15 C15.56183415 15.0809723 13.12635616 15.14046972 10.6875 15.1875 C9.65206055 15.22520508 9.65206055 15.22520508 8.59570312 15.26367188 C5.7432478 15.30501181 3.54314323 15.31036756 1.03125 13.875 C-0.47436282 11.13752214 -0.28741783 8.90995259 -0.1875 5.8125 C-0.16042969 4.72582031 -0.13335938 3.63914063 -0.10546875 2.51953125 C-0.07066406 1.68808594 -0.03585937 0.85664063 0 0 Z " fill="#9B9A98" transform="translate(566,163)"/>
<path d="M0 0 C0.99 0 1.98 0 3 0 C3 4.95 3 9.9 3 15 C-0.3 15 -3.6 15 -7 15 C-6.67 14.34 -6.34 13.68 -6 13 C-4.02 13 -2.04 13 0 13 C0 8.71 0 4.42 0 0 Z " fill="#D8D8D7" transform="translate(604,162)"/>
<path d="M0 0 C4.77379752 1.19344938 6.38574709 2.79645765 10 6 C9.01 7.485 9.01 7.485 8 9 C6.02 7.35 4.04 5.7 2 4 C2 7.63 2 11.26 2 15 C1.34 15 0.68 15 0 15 C0 10.05 0 5.1 0 0 Z " fill="#DBD9D7" transform="translate(312,162)"/>
<path d="M0 0 C0.33 0 0.66 0 1 0 C1.33 2.64 1.66 5.28 2 8 C2.33 5.36 2.66 2.72 3 0 C3.33 0 3.66 0 4 0 C4.10836453 1.43583001 4.18576167 2.8740202 4.25 4.3125 C4.29640625 5.11300781 4.3428125 5.91351563 4.390625 6.73828125 C4 9 4 9 2.40625 10.78125 C-0.78608913 12.39814904 -3.19033033 12.29429009 -6.75 12.1875 C-7.92046875 12.16042969 -9.0909375 12.13335937 -10.296875 12.10546875 C-11.18890625 12.07066406 -12.0809375 12.03585938 -13 12 C-13 11.67 -13 11.34 -13 11 C-8.545 10.505 -8.545 10.505 -4 10 C-6.64 9.67 -9.28 9.34 -12 9 C-12 8.67 -12 8.34 -12 8 C-6.555 7.505 -6.555 7.505 -1 7 C-0.67 4.69 -0.34 2.38 0 0 Z " fill="#838382" transform="translate(400,166)"/>
<path d="M0 0 C1.65 0 3.3 0 5 0 C4.01 0.33 3.02 0.66 2 1 C2 5.95 2 10.9 2 16 C2.66 16 3.32 16 4 16 C4 12.37 4 8.74 4 5 C4.66 5.33 5.32 5.66 6 6 C5.67 9.96 5.34 13.92 5 18 C3.35 17.67 1.7 17.34 0 17 C0 11.39 0 5.78 0 0 Z " fill="#525251" transform="translate(310,161)"/>
<path d="M0 0 C1.38294718 0.01329757 2.76582404 0.03715018 4.1484375 0.0703125 C4.85484375 0.07933594 5.56125 0.08835938 6.2890625 0.09765625 C8.03399848 0.12123647 9.77876045 0.15710789 11.5234375 0.1953125 C11.5234375 1.1853125 11.5234375 2.1753125 11.5234375 3.1953125 C6.9034375 3.1953125 2.2834375 3.1953125 -2.4765625 3.1953125 C-2.8065625 4.1853125 -3.1365625 5.1753125 -3.4765625 6.1953125 C-4.1365625 6.8553125 -4.7965625 7.5153125 -5.4765625 8.1953125 C-5.6015625 5.3203125 -5.6015625 5.3203125 -5.4765625 2.1953125 C-3.4765625 0.1953125 -3.4765625 0.1953125 0 0 Z " fill="#C2C0BE" transform="translate(476.4765625,160.8046875)"/>
<path d="M0 0 C0.33 0.99 0.66 1.98 1 3 C2.65 2.67 4.3 2.34 6 2 C7.98 4.31 9.96 6.62 12 9 C7.35842294 8.37275986 7.35842294 8.37275986 5.4375 6.375 C4.7259375 5.694375 4.7259375 5.694375 4 5 C1.37246626 5.16422086 0.30095034 5.69904966 -1.5625 7.5625 C-2.2740625 8.2740625 -2.2740625 8.2740625 -3 9 C-3.99 9 -4.98 9 -6 9 C-4.47291037 5.56404834 -2.40072955 2.88087546 0 0 Z " fill="#C4C2C0" transform="translate(361,168)"/>
<path d="M0 0 C2.47174152 0.47533491 4.27751337 1.15263235 6.5 2.375 C10.73447258 4.34100513 14.92959989 5.21423466 19.48828125 6.15625 C20.31714844 6.4346875 21.14601563 6.713125 22 7 C22.33 7.99 22.66 8.98 23 10 C14.88379222 9.27855931 6.73837531 6.64631655 0 2 C0 1.34 0 0.68 0 0 Z " fill="#7D4510" transform="translate(79,190)"/>
<path d="M0 0 C8 0 16 0 24 0 C22.68 0.33 21.36 0.66 20 1 C20 4.3 20 7.6 20 11 C19.34 9.68 18.68 8.36 18 7 C17.01 6.67 16.02 6.34 15 6 C15.33 4.35 15.66 2.7 16 1 C10.72 1 5.44 1 0 1 C0 0.67 0 0.34 0 0 Z " fill="#1B1B1B" transform="translate(568,160)"/>
<path d="M0 0 C1.65 0 3.3 0 5 0 C5 3.96 5 7.92 5 12 C4.67 12 4.34 12 4 12 C4 8.7 4 5.4 4 2 C3.34 2 2.68 2 2 2 C2 5.63 2 9.26 2 13 C0.02 13.99 0.02 13.99 -2 15 C-2 13.35 -2 11.7 -2 10 C-1.34 10 -0.68 10 0 10 C0 6.7 0 3.4 0 0 Z " fill="#494848" transform="translate(491,160)"/>
<path d="M0 0 C1.08667969 0.01804688 2.17335938 0.03609375 3.29296875 0.0546875 C4.54013672 0.08949219 4.54013672 0.08949219 5.8125 0.125 C5.4825 1.445 5.1525 2.765 4.8125 4.125 C0.1925 4.125 -4.4275 4.125 -9.1875 4.125 C-9.1875 3.465 -9.1875 2.805 -9.1875 2.125 C-5.66070901 -0.22619399 -4.15870515 -0.08943452 0 0 Z " fill="#2B2A2A" transform="translate(480.1875,170.875)"/>
<path d="M0 0 C-0.02320313 0.62648437 -0.04640625 1.25296875 -0.0703125 1.8984375 C-0.08835937 2.71570313 -0.10640625 3.53296875 -0.125 4.375 C-0.15980469 5.59316406 -0.15980469 5.59316406 -0.1953125 6.8359375 C-0.21370051 9.21342243 -0.21370051 9.21342243 2 11 C4.65537372 11.56520003 7.29144713 11.73788198 10 12 C10 12.33 10 12.66 10 13 C8.22992286 13.08114106 6.45877902 13.13925505 4.6875 13.1875 C3.70136719 13.22230469 2.71523438 13.25710937 1.69921875 13.29296875 C-1 13 -1 13 -2.84375 11.78125 C-4.33837241 9.47872359 -4.30586192 8.0348242 -4.1875 5.3125 C-4.16042969 4.50425781 -4.13335937 3.69601563 -4.10546875 2.86328125 C-4.07066406 2.24839844 -4.03585937 1.63351563 -4 1 C-2 0 -2 0 0 0 Z " fill="#D7D7D5" transform="translate(291,164)"/>
<path d="M0 0 C0.99 1.485 0.99 1.485 2 3 C2.66 2.01 3.32 1.02 4 0 C4 4.62 4 9.24 4 14 C3.34 14 2.68 14 2 14 C1.34 14.66 0.68 15.32 0 16 C0 10.72 0 5.44 0 0 Z " fill="#242424" transform="translate(330,161)"/>
<path d="M0 0 C0.33 1.32 0.66 2.64 1 4 C5.29 4 9.58 4 14 4 C13.67 4.99 13.34 5.98 13 7 C9.04 7 5.08 7 1 7 C0.67 7.99 0.34 8.98 0 10 C0 6.7 0 3.4 0 0 Z " fill="#BBBAB9" transform="translate(337,164)"/>
<path d="M0 0 C1.77706209 2.66559313 2.87548273 5.0280615 4 8 C4.33 8 4.66 8 5 8 C5.66 5.36 6.32 2.72 7 0 C8.02971945 4.1188778 7.81926586 6.15456121 7.0625 10.25 C6.86785156 11.32765625 6.67320312 12.4053125 6.47265625 13.515625 C6.23869141 14.74539062 6.23869141 14.74539062 6 16 C5.01 16 4.02 16 3 16 C1.75799248 10.6822785 0.69165788 5.41798672 0 0 Z " fill="#6E3A08" transform="translate(384,109)"/>
<path d="M0 0 C0.33 1.32 0.66 2.64 1 4 C3.64 4.33 6.28 4.66 9 5 C9 5.33 9 5.66 9 6 C1.08 6.33 -6.84 6.66 -15 7 C-10.7952889 3.84646667 -10.14908143 3.63753281 -5.25 3.8125 C-4.26515625 3.83957031 -3.2803125 3.86664063 -2.265625 3.89453125 C-1.51796875 3.92933594 -0.7703125 3.96414062 0 4 C0 2.68 0 1.36 0 0 Z " fill="#934F0E" transform="translate(99,51)"/>
<path d="M0 0 C2.47923801 -0.02685095 4.9581884 -0.04676547 7.4375 -0.0625 C8.14455078 -0.07087891 8.85160156 -0.07925781 9.58007812 -0.08789062 C11.38693559 -0.09653588 13.19387603 -0.05220011 15 0 C16 1 16 1 16.0625 4.5625 C16.041875 5.696875 16.02125 6.83125 16 8 C11.71 8 7.42 8 3 8 C3.33 7.34 3.66 6.68 4 6 C7.3 6 10.6 6 14 6 C14 4.68 14 3.36 14 2 C7.07 1.505 7.07 1.505 0 1 C0 0.67 0 0.34 0 0 Z " fill="#A6560B" transform="translate(299,102)"/>
<path d="M0 0 C-1 3 -1 3 -3.22265625 4.38671875 C-9.14495357 7.0994079 -13.48003726 8.61509082 -20 8 C-16.36711626 6.11966319 -12.62971332 4.49301048 -8.875 2.875 C-8.24207031 2.59785156 -7.60914062 2.32070312 -6.95703125 2.03515625 C-2.23506773 0 -2.23506773 0 0 0 Z " fill="#82470F" transform="translate(135,180)"/>
<path d="M0 0 C0.99 0 1.98 0 3 0 C2.34 2.31 1.68 4.62 1 7 C4.96 7 8.92 7 13 7 C13 7.33 13 7.66 13 8 C9.04 8 5.08 8 1 8 C1 9.65 1 11.3 1 13 C0.34 13 -0.32 13 -1 13 C-1.02686553 11.02090602 -1.04633375 9.04171029 -1.0625 7.0625 C-1.07410156 5.96035156 -1.08570313 4.85820312 -1.09765625 3.72265625 C-1 1 -1 1 0 0 Z " fill="#E8E6E3" transform="translate(666,164)"/>
<path d="M0 0 C3.3 0 6.6 0 10 0 C10.144375 0.78375 10.28875 1.5675 10.4375 2.375 C10.87798925 4.96421018 10.87798925 4.96421018 12 7 C7.0682659 6.55166054 3.6807076 4.13973905 0 1 C0 0.67 0 0.34 0 0 Z " fill="#D4D2D0" transform="translate(617,170)"/>
<path d="M0 0 C4.62 0 9.24 0 14 0 C11 3 11 3 8.73828125 3.29296875 C7.93777344 3.25816406 7.13726562 3.22335938 6.3125 3.1875 C4.1778125 3.0946875 4.1778125 3.0946875 2 3 C1.67 5.97 1.34 8.94 1 12 C0.67 12 0.34 12 0 12 C-0.125 5.25 -0.125 5.25 1 3 C0.01 3.33 -0.98 3.66 -2 4 C-1.34 2.68 -0.68 1.36 0 0 Z " fill="#9D9C9B" transform="translate(290,161)"/>
<path d="M0 0 C3.63 0 7.26 0 11 0 C11 4.95 11 9.9 11 15 C10.34 15 9.68 15 9 15 C8.67 10.71 8.34 6.42 8 2 C5.36 1.67 2.72 1.34 0 1 C0 0.67 0 0.34 0 0 Z " fill="#ECEBE9" transform="translate(243,162)"/>
<path d="M0 0 C1.26328125 0.29648438 2.5265625 0.59296875 3.828125 0.8984375 C5.27445313 1.25808594 5.27445313 1.25808594 6.75 1.625 C6.75 2.615 6.75 3.605 6.75 4.625 C0.44632197 4.04132611 -5.23660063 2.58428381 -11.25 0.625 C-7.35172954 -2.11166462 -4.43812922 -1.06843852 0 0 Z " fill="#713C09" transform="translate(93.25,128.375)"/>
<path d="M0 0 C1.48576635 4.01156915 0.80747878 4.48130304 -1 9 C-4.96 9 -8.92 9 -13 9 C-12.67 7.68 -12.34 6.36 -12 5 C-12 5.66 -12 6.32 -12 7 C-8.7 7 -5.4 7 -2 7 C-1.34 4.69 -0.68 2.38 0 0 Z " fill="#4A2706" transform="translate(395,127)"/>
<path d="M0 0 C1.21405922 3.49551279 0.777272 5.69093297 -0.3125 9.1875 C-0.57675781 10.06792969 -0.84101563 10.94835937 -1.11328125 11.85546875 C-2 14 -2 14 -4 15 C-6.42857143 7.57142857 -6.42857143 7.57142857 -5 4 C-4.67 4.66 -4.34 5.32 -4 6 C-3.34 6 -2.68 6 -2 6 C-1.34 4.02 -0.68 2.04 0 0 Z " fill="#603307" transform="translate(370,110)"/>
<path d="M0 0 C0.33 0 0.66 0 1 0 C2.50382815 7.34514411 3.23649903 13.5810058 2 21 C1.67 21 1.34 21 1 21 C0.6358011 18.4385681 0.28337202 15.87641581 -0.0625 13.3125 C-0.16626953 12.59126953 -0.27003906 11.87003906 -0.37695312 11.12695312 C-0.9023633 7.15920043 -1.10596507 3.92114889 0 0 Z " fill="#81470F" transform="translate(56,177)"/>
<path d="M0 0 C0.33 0.99 0.66 1.98 1 3 C4.3 3 7.6 3 11 3 C11 3.99 11 4.98 11 6 C7.37 6 3.74 6 0 6 C0 4.02 0 2.04 0 0 Z " fill="#0D0D0C" transform="translate(570,168)"/>
<path d="M0 0 C0.66 0 1.32 0 2 0 C2.99 3.3 3.98 6.6 5 10 C4.34 9.67 3.68 9.34 3 9 C3 8.01 3 7.02 3 6 C0.03 8.475 0.03 8.475 -3 11 C-2.01 7.37 -1.02 3.74 0 0 Z " fill="#4B2907" transform="translate(609,100)"/>
<path d="M0 0 C4.18659858 3.82774727 7.37820862 7.94607874 10 13 C10 13.66 10 14.32 10 15 C6.24514684 13.74838228 5.83105872 12.54425403 3.875 9.1875 C3.35679687 8.31480469 2.83859375 7.44210938 2.3046875 6.54296875 C1.1609068 4.31362373 0.46743191 2.44546695 0 0 Z " fill="#9A5311" transform="translate(140,89)"/>
<path d="M0 0 C0 0.66 0 1.32 0 2 C-5.445 3.485 -5.445 3.485 -11 5 C-11.33 4.01 -11.66 3.02 -12 2 C-10.75579353 1.4654744 -9.50429064 0.94791389 -8.25 0.4375 C-7.55390625 0.14746094 -6.8578125 -0.14257812 -6.140625 -0.44140625 C-3.69987216 -1.07831803 -2.3596345 -0.80248831 0 0 Z " fill="#6C3A0C" transform="translate(87,57)"/>
<path d="M0 0 C0.66 0 1.32 0 2 0 C2.03738281 0.67546875 2.07476563 1.3509375 2.11328125 2.046875 C2.17902344 2.93890625 2.24476563 3.8309375 2.3125 4.75 C2.37050781 5.63171875 2.42851563 6.5134375 2.48828125 7.421875 C3.0641181 10.32303774 4.07596148 11.79225607 6 14 C4.02 13.34 2.04 12.68 0 12 C0 8.04 0 4.08 0 0 Z " fill="#E6E4E4" transform="translate(589,162)"/>
<path d="M0 0 C2.86724686 0.57344937 3.8614515 0.8614515 6 3 C9.08347826 3.16681109 9.08347826 3.16681109 12 3 C12 3.66 12 4.32 12 5 C9.69 5.66 7.38 6.32 5 7 C3.29115995 5.37660195 1.62553283 3.70680947 0 2 C0 1.34 0 0.68 0 0 Z " fill="#B0ADAB" transform="translate(355,161)"/>
<path d="M0 0 C4.95 0 9.9 0 15 0 C15.33 1.32 15.66 2.64 16 4 C15.01 4.495 15.01 4.495 14 5 C14 4.34 14 3.68 14 3 C12.80375 2.855625 11.6075 2.71125 10.375 2.5625 C6.8994842 2.12960657 3.45049966 1.60383744 0 1 C0 0.67 0 0.34 0 0 Z " fill="#88480E" transform="translate(45,144)"/>
<path d="M0 0 C3.63 0 7.26 0 11 0 C11 0.33 11 0.66 11 1 C7.7 1 4.4 1 1 1 C2.26974972 5.41522109 2.26974972 5.41522109 5 9 C3.68 9 2.36 9 1 9 C0.67 10.32 0.34 11.64 0 13 C0 8.71 0 4.42 0 0 Z " fill="#444443" transform="translate(615,164)"/>
<path d="M0 0 C0.33 0 0.66 0 1 0 C1 4.62 1 9.24 1 14 C-3 13 -3 13 -4.25 10.9375 C-4.4975 10.298125 -4.745 9.65875 -5 9 C-2.525 9.495 -2.525 9.495 0 10 C0 6.7 0 3.4 0 0 Z " fill="#EDECEB" transform="translate(424,162)"/>
<path d="M0 0 C1.07765625 0.01804688 2.1553125 0.03609375 3.265625 0.0546875 C4.49539063 0.08949219 4.49539063 0.08949219 5.75 0.125 C3.95854989 2.37797623 2.976737 3.07480117 0.12109375 3.70703125 C-0.84699219 3.78308594 -1.81507813 3.85914063 -2.8125 3.9375 C-4.26849609 4.07091797 -4.26849609 4.07091797 -5.75390625 4.20703125 C-8.25 4.125 -8.25 4.125 -10.25 2.125 C-6.7733662 -0.01836161 -4.03770805 -0.08777626 0 0 Z " fill="#B8B6B5" transform="translate(677.25,160.875)"/>
<path d="M0 0 C3.96 0 7.92 0 12 0 C12 0.33 12 0.66 12 1 C8.37 1 4.74 1 1 1 C1.639375 1.94875 2.27875 2.8975 2.9375 3.875 C5 7 5 7 6 9 C4.1875 8.8125 4.1875 8.8125 2 8 C0.1875 5.625 0.1875 5.625 -1 3 C-0.67 2.01 -0.34 1.02 0 0 Z " fill="#83440D" transform="translate(72,94)"/>
<path d="M0 0 C0.99 0.495 0.99 0.495 2 1 C3.47180796 5.82425944 4.25376143 9.92477148 4 15 C0.57974684 11.57974684 0.04655199 7.28017975 -0.125 2.5625 C-0.08375 1.716875 -0.0425 0.87125 0 0 Z " fill="#995114" transform="translate(152,77)"/>
<path d="M0 0 C0.33 0 0.66 0 1 0 C1 3.63 1 7.26 1 11 C3.475 11.99 3.475 11.99 6 13 C6.66 13.66 7.32 14.32 8 15 C1.375 14.25 1.375 14.25 -2 12 C-1.34 12 -0.68 12 0 12 C0 8.04 0 4.08 0 0 Z " fill="#80410E" transform="translate(121,47)"/>
<path d="M0 0 C0.99773438 0.02320312 1.99546875 0.04640625 3.0234375 0.0703125 C4.52777344 0.09738281 4.52777344 0.09738281 6.0625 0.125 C6.83335937 0.14820312 7.60421875 0.17140625 8.3984375 0.1953125 C8.3984375 0.5253125 8.3984375 0.8553125 8.3984375 1.1953125 C5.0984375 1.1953125 1.7984375 1.1953125 -1.6015625 1.1953125 C-1.9315625 3.8353125 -2.2615625 6.4753125 -2.6015625 9.1953125 C-3.5915625 8.5353125 -4.5815625 7.8753125 -5.6015625 7.1953125 C-4.51902891 0.33926643 -4.51902891 0.33926643 0 0 Z " fill="#4B2706" transform="translate(672.6015625,95.8046875)"/>
<path d="M0 0 C0.99 0 1.98 0 3 0 C3.38873828 1.95565258 3.76060833 3.91466504 4.125 5.875 C4.33382812 6.96554688 4.54265625 8.05609375 4.7578125 9.1796875 C4.83773437 10.11039063 4.91765625 11.04109375 5 12 C4.34 12.66 3.68 13.32 3 14 C0.88838269 4.58997722 0.88838269 4.58997722 0 0 Z " fill="#7F4311" transform="translate(148,65)"/>
<path d="M0 0 C0 0.66 0 1.32 0 2 C-4.79137588 3.6290678 -8.05632546 4.20577428 -13 3 C-8.65118303 0.58399057 -4.96195443 0 0 0 Z " fill="#884A11" transform="translate(135,195)"/>
<path d="M0 0 C0.66 0 1.32 0 2 0 C3.18681726 3.56045177 3.09689832 6.43808337 3.0625 10.1875 C3.05347656 11.45980469 3.04445312 12.73210937 3.03515625 14.04296875 C3.02355469 15.01878906 3.01195312 15.99460938 3 17 C2.67 17 2.34 17 2 17 C1.34 11.39 0.68 5.78 0 0 Z " fill="#9C5716" transform="translate(161,145)"/>
<path d="M0 0 C1.6752357 0.28718326 3.34080104 0.63128912 5 1 C6.99897128 1.33944795 8.99875639 1.67421616 11 2 C8 4 8 4 4.4375 3.75 C1 3 1 3 -1 1 C-0.67 0.67 -0.34 0.34 0 0 Z " fill="#6E3C0D" transform="translate(91,183)"/>
<path d="M0 0 C9.59453303 1.74259681 9.59453303 1.74259681 13 5 C9.12049035 5 7.63334507 4.59216239 4.25 3 C3.45078125 2.62875 2.6515625 2.2575 1.828125 1.875 C1.22484375 1.58625 0.6215625 1.2975 0 1 C0 0.67 0 0.34 0 0 Z " fill="#954D0B" transform="translate(119,137)"/>
<path d="M0 0 C0.99 0.33 1.98 0.66 3 1 C0.69 3.31 -1.62 5.62 -4 8 C-4.99 7.67 -5.98 7.34 -7 7 C-4.69 4.69 -2.38 2.38 0 0 Z " fill="#955211" transform="translate(64,66)"/>
<path d="M0 0 C3.5786304 1.65167557 6.74820188 3.78286492 10 6 C9.34 6.66 8.68 7.32 8 8 C7.236875 7.360625 6.47375 6.72125 5.6875 6.0625 C3.11753287 3.85767219 3.11753287 3.85767219 0 3 C0 2.01 0 1.02 0 0 Z " fill="#A05816" transform="translate(70,183)"/>
<path d="M0 0 C0.33 0 0.66 0 1 0 C1 4.62 1 9.24 1 14 C-0.32 13.67 -1.64 13.34 -3 13 C-3 12.34 -3 11.68 -3 11 C-2.01 11 -1.02 11 0 11 C0 7.37 0 3.74 0 0 Z " fill="#F7F6F5" transform="translate(328,162)"/>
<path d="M0 0 C1.23556641 0.01740234 1.23556641 0.01740234 2.49609375 0.03515625 C3.32238281 0.04417969 4.14867187 0.05320312 5 0.0625 C5.63808594 0.07410156 6.27617187 0.08570312 6.93359375 0.09765625 C6.93359375 0.42765625 6.93359375 0.75765625 6.93359375 1.09765625 C4.62359375 1.42765625 2.31359375 1.75765625 -0.06640625 2.09765625 C-0.06640625 2.75765625 -0.06640625 3.41765625 -0.06640625 4.09765625 C0.92359375 4.75765625 1.91359375 5.41765625 2.93359375 6.09765625 C1.28359375 5.76765625 -0.36640625 5.43765625 -2.06640625 5.09765625 C-2.62890625 3.16015625 -2.62890625 3.16015625 -3.06640625 1.09765625 C-2.06640625 0.09765625 -2.06640625 0.09765625 0 0 Z " fill="#4B2908" transform="translate(335.06640625,108.90234375)"/>
<path d="M0 0 C0.66 0.33 1.32 0.66 2 1 C0.71937515 2.7074998 -0.61767557 4.37373596 -2 6 C-2.66 6 -3.32 6 -4 6 C-4 7.98 -4 9.96 -4 12 C-4.33 12 -4.66 12 -5 12 C-5.3125 8.8125 -5.3125 8.8125 -5 5 C-2.5 2.0625 -2.5 2.0625 0 0 Z " fill="#B75C08" transform="translate(297,103)"/>
<path d="M0 0 C0.66 0.66 1.32 1.32 2 2 C1.67 2.66 1.34 3.32 1 4 C6.94 3.505 6.94 3.505 13 3 C9.68629 5.20914 8.6553979 5.22481553 4.8125 5.125 C3.91144531 5.10695313 3.01039062 5.08890625 2.08203125 5.0703125 C1.39496094 5.04710938 0.70789063 5.02390625 0 5 C-0.5625 3.0625 -0.5625 3.0625 -1 1 C-0.67 0.67 -0.34 0.34 0 0 Z " fill="#8F4909" transform="translate(71,78)"/>
<path d="M0 0 C3.36720387 1.39332574 4.9859524 2.9789286 7 6 C2.25 5.25 2.25 5.25 0 3 C0 2.01 0 1.02 0 0 Z " fill="#D6D4D2" transform="translate(366,171)"/>
<path d="M0 0 C2.13586678 3.20380017 2.23132175 4.01939967 2.125 7.6875 C2.10695312 8.49574219 2.08890625 9.30398437 2.0703125 10.13671875 C2.04710937 10.75160156 2.02390625 11.36648437 2 12 C0.22589766 8.65454988 -0.58817344 5.78880439 -1 2 C-0.67 1.34 -0.34 0.68 0 0 Z " fill="#9D5611" transform="translate(51,153)"/>
<path d="M0 0 C-1.90401138 1.90401138 -3.33425686 2.93520439 -6.046875 3.19921875 C-8.03233273 3.1886578 -10.0169914 3.09915043 -12 3 C-7.85930434 0.85826087 -4.68855996 -0.12671784 0 0 Z " fill="#9C5412" transform="translate(127,185)"/>
<path d="M0 0 C0.33 0 0.66 0 1 0 C1 3.63 1 7.26 1 11 C-0.65 10.01 -2.3 9.02 -4 8 C-2.68 7.67 -1.36 7.34 0 7 C0 4.69 0 2.38 0 0 Z " fill="#383939" transform="translate(326,161)"/>
<path d="M0 0 C6.15234375 0.5859375 6.15234375 0.5859375 8 1 C8.33 1.66 8.66 2.32 9 3 C6.03 3 3.06 3 0 3 C0 2.01 0 1.02 0 0 Z " fill="#6F3B0B" transform="translate(124,118)"/>
<path d="M0 0 C3.60296594 -0.41176754 4.78402067 -0.1535853 7.8125 2 C8.534375 2.66 9.25625 3.32 10 4 C7 5 7 5 5.17578125 4.22265625 C3.45052083 3.1484375 1.72526042 2.07421875 0 1 C0 0.67 0 0.34 0 0 Z " fill="#8C4911" transform="translate(126,62)"/>
<path d="M0 0 C2.475 0.99 2.475 0.99 5 2 C4.34 3.32 3.68 4.64 3 6 C1.5 4.6875 1.5 4.6875 0 3 C0 2.01 0 1.02 0 0 Z " fill="#C8C8C8" transform="translate(321,169)"/>
<path d="M0 0 C2.12038635 2.61514317 4.13091744 5.19637616 6 8 C5.01 8 4.02 8 3 8 C0.19744677 5.0936485 0 4.21174952 0 0 Z " fill="#904B10" transform="translate(67,160)"/>
<path d="M0 0 C0.66 0.33 1.32 0.66 2 1 C0.625 3 0.625 3 -1 5 C-1.66 5 -2.32 5 -3 5 C-3 5.99 -3 6.98 -3 8 C-3.66 8 -4.32 8 -5 8 C-3.8141763 4.62496331 -2.72426311 2.35277269 0 0 Z " fill="#A75709" transform="translate(413,104)"/>
<path d="M0 0 C0.33 0 0.66 0 1 0 C2.25 7.625 2.25 7.625 0 11 C-1.125 3.375 -1.125 3.375 0 0 Z " fill="#814511" transform="translate(156,89)"/>
<path d="M0 0 C-3.8503105 2.56687367 -5.58569763 1.83288724 -10 1 C-6.1496895 -1.56687367 -4.41430237 -0.83288724 0 0 Z " fill="#723E0A" transform="translate(107,112)"/>
<path d="M0 0 C0.66 0.33 1.32 0.66 2 1 C0.38405168 3.04119788 -1.2856382 5.04072937 -3 7 C-3.66 7 -4.32 7 -5 7 C-3.75023244 3.34683329 -3.32901247 2.21934164 0 0 Z " fill="#96500E" transform="translate(77,72)"/>
</svg>
